<svg fill="none" height="30" viewBox="0 0 74 30" width="74" xmlns="http://www.w3.org/2000/svg"><path d="m0 29.2933c.096099-.3442.171721-.6935.226487-1.0463.068845-.4159.130649-.9326.185412-1.55.054764-.6174.095838-1.3519.12322-2.2036.027381-.8517.041072-1.8476.041072-2.9878v-13.09944c0-1.14017-.013691-2.13611-.041072-2.9878-.027382-.8517-.068456-1.58969-.12322-2.21396-.054763-.62351-.116567-1.14323-.185412-1.55915-.054766-.35274-.130388-.702087-.226487-1.046307v-.080133h4.92871v.080133c-.09609.344726-.17443.693927-.2347 1.046307-.07823.41592-.14004.93564-.18541 1.55915-.04538.62351-.08645 1.3615-.12322 2.21396-.03442.85169-.05163 1.84763-.05163 2.9878v13.09944c0 1.1402.01721 2.1361.05163 2.9878s.0755 1.5862.12322 2.2036c.0485.6174.11031 1.1341.18541 1.55.06027.3524.13861.7016.2347 1.0463v.0802h-4.92871zm19.5975-7.7843c0 1.1402.0172 2.1361.0516 2.9878s.0755 1.5863.1232 2.2037c.0485.6174.1104 1.134.1855 1.55.0602.3523.1386.7016.2347 1.0463v.0767h-4.951v-.0802c.096-.3447.1744-.6939.2346-1.0463.0783-.4159.1401-.9326.1855-1.55.0453-.6174.0864-1.3485.1232-2.1933.0344-.8448.0516-1.8442.0516-2.9981v-13.09944c0-1.14017-.0172-2.13611-.0516-2.9878-.0344-.8517-.0755-1.58625-.1232-2.20365-.0485-.61741-.1103-1.13713-.1855-1.55916-.0596-.35589-.1379-.708554-.2346-1.056607v-.080133l.866.080133c.2613.026711.5535.043501.8766.05037.3231.006868.6568.010301 1.001.010301.7288-.016101 1.4557-.079969 2.1757-.191174 1.1594-.141696 2.3274-.205571 3.4958-.191173 1.2409-.011494 2.476.164993 3.6614.523153 1.0655.31982 2.0568.83932 2.9185 1.52939.8245.66946 1.4839 1.51146 1.9292 2.46351.4758 1.04099.7121 2.17101.6924 3.31063.0083.90896-.1202 1.81419-.3814 2.68675-.2405.796-.602 1.5523-1.0726 2.2437-.4603.6705-1.0199 1.2708-1.6605 1.7812-.6599.5243-1.3884.9604-2.1663 1.297l7.2405 9.9205c.3575.496.6912.9253 1.001 1.2878.2772.3281.5734.6404.8872.9353.2514.2379.5239.4536.8144.6445.2508.1626.5212.2945.805.3926v.0802h-5.9614c-.0802-.3569-.2159-.6997-.4025-1.0166-.2355-.4367-.5009-.8574-.7944-1.2592l-7.3028-10.0406c-.3129.0267-.6293.0503-.9493.0709-.32.0207-.6431.0306-.9693.0298-.3849 0-.7734-.0133-1.1653-.0401-.3977-.0274-.7936-.0744-1.1864-.1408zm0-6.0969c.3741.0807.7531.1377 1.1348.1705.3849.0336.7561.0504 1.1136.0504.9621.0096 1.9186-.1454 2.8258-.4579.8261-.2842 1.5716-.7549 2.1757-1.3737.6265-.6631 1.1013-1.4486 1.3929-2.3044.3496-1.0417.517-2.13342.4953-3.22935.0103-.92372-.1081-1.84453-.3521-2.73711-.2013-.75552-.5552-1.46423-1.0409-2.08459-.4636-.57231-1.0612-1.0277-1.7426-1.32792-.7735-.32956-1.6112-.4909-2.455-.47278-.7592-.01276-1.5182.03433-2.2696.1408-.4349.06266-.863.16382-1.2791.30222zm25.0132 13.8812c.0961-.3442.1717-.6935.2265-1.0463.0688-.4159.1306-.9326.1854-1.55s.0958-1.3519.1232-2.2036.0411-1.8476.0411-2.9878v-13.09944c0-1.14017-.0137-2.13611-.0411-2.9878-.0274-.8517-.068-1.58969-.122-2.21396-.0548-.62351-.1166-1.14323-.1854-1.55915-.0548-.35274-.1304-.702087-.2265-1.046307v-.080133h4.9287v.080133c-.0961.344726-.1745.693927-.2347 1.046307-.0783.41592-.1401.93564-.1854 1.55915-.0454.62351-.0865 1.3615-.1233 2.21396-.0344.85169-.0516 1.84763-.0516 2.9878v13.09944c0 1.1402.0172 2.1361.0516 2.9878.0345.8517.0755 1.5862.1233 2.2036.0485.6174.1103 1.1341.1854 1.55.0602.3524.1386.7016.2347 1.0463v.0802h-4.9287zm27.5761-24.18861h-.4541c-.1382-.36535-.3144-.71594-.5257-1.0463-.2586-.40972-.5786-.77937-.9494-1.09668-.4223-.36044-.9034-.64946-1.4235-.85513-.6268-.24113-1.2966-.35788-1.9703-.34342-.6123-.01042-1.221.09212-1.7943.30221-.4952.18355-.9426.47211-1.3096.84483-.3553.36953-.6261.80851-.7945 1.28785-.1847.53105-.2755 1.08885-.2687 1.64959.0044.98085.2942 1.94032.8355 2.76687.6036.93681 1.3052 1.80999 2.0936 2.60549.8386.8585 1.7461 1.7171 2.7225 2.5757.9586.8412 1.8676 1.7348 2.7225 2.6764.811.8868 1.5135 1.8626 2.0936 2.9077.5548 1.0043.8421 2.1285.8355 3.2694-.0056.8947-.1643 1.7823-.4694 2.6261-.3076.8752-.7956 1.6797-1.434 2.3639-.6961.7342-1.5447 1.3153-2.489 1.7045-1.1508.4608-2.3872.6834-3.6308.6537-.7514.0029-1.5011-.0681-2.2379-.2118-.6647-.1304-1.3192-.3064-1.9586-.5266-.5515-.1884-1.0891-.4137-1.6089-.6743-.4011-.1994-.7901-.4211-1.1653-.6639l.4694-4.4474h.5152c.1526.6335.4031 1.2407.7428 1.8007.3393.5646.7674 1.0737 1.2686 1.5088.5099.4407 1.0923.7945 1.7227 1.0463.6753.2699 1.399.4057 2.1287.3995.6433.0099 1.2829-.0956 1.887-.3113.5322-.1929 1.0196-.4871 1.434-.8655.3994-.3698.7124-.8192.9177-1.3176.2172-.5322.3252-1.1008.318-1.6736.0099-.8046-.1499-1.6026-.4694-2.3445-.3238-.7303-.7431-1.4167-1.2474-2.0422-.5358-.6656-1.1219-1.2912-1.7532-1.8717-.6533-.6037-1.3237-1.2108-2.0114-1.8213-.6876-.6105-1.3581-1.2379-2.0114-1.882-.6458-.6348-1.2325-1.3243-1.7532-2.0605-.5165-.7307-.9368-1.5218-1.2509-2.35479-.3232-.88791-.4821-1.82475-.4694-2.76687-.0147-.98807.2003-1.96654.629-2.86189.4021-.82913.9703-1.57139 1.671-2.18304.692-.60224 1.4931-1.073167 2.3623-1.388587.8701-.320222 1.7925-.48389921 2.7225-.48308737.6363-.00428021 1.2716.04976147 1.8976.16141137.5269.094833 1.047.222544 1.5572.382347.4608.147292.8629.294964 1.2064.443019l.8461.361747z" fill="#455667"/></svg>