<svg fill="none" height="43" viewBox="0 0 112 43" width="112" xmlns="http://www.w3.org/2000/svg"><g fill="#455667"><path d="m27.0231 3.61806c.2311.54367.3351 1.13289.3041 1.7228-.031.58992-.1963 1.16498-.4831 1.6814-.6669 1.13509-1.7236 1.98909-2.9734 2.40294-1.8271.7007-3.8254.8223-5.724.34848-1.8975-.41869-3.6504-1.33192-5.0808-2.64699l.475-.51736c.831.5042 1.7447.85756 2.6987 1.04377 1.145.2053 2.3187.18971 3.4578-.0459l-.1492-1.12003c-.1978-1.08935-.0514-2.21324.4189-3.21554.4434-.89236 1.2137-1.57947 2.1507-1.9185.4675-.19906.9722-.29538 1.4801-.28242.5079.01295 1.0071.13488 1.4638.35751.9155.44472 1.6198 1.23108 1.9614 2.18984z"/><path d="m7.24299 33.5723c-1.27554.0166-2.54687-.1498-3.7752-.494-1.06673-.3093-2.10179-.7188-3.091342-1.2232l.043145-5.1062h.431451l1.456146 2.5747c.50225.9908 1.21232 1.8616 2.08175 2.5531.84896.5871 1.86578.8824 2.89719.8413 1.17857.0561 2.34407-.2671 3.32537-.9222.4003-.273.7259-.6418.9471-1.0729s.3309-.9106.3192-1.395c.0169-.4289-.0544-.8566-.2095-1.2568s-.3907-.7643-.6922-1.0698c-.9749-.7927-2.11889-1.3507-3.34373-1.6309l-1.8067-.5522c-1.56689-.4097-2.99157-1.2408-4.11928-2.4032-1.000257-1.0846-1.5388-2.516-1.501444-3.9909-.007508-.9165.188827-1.8232.574796-2.6544.385968-.8313.951918-1.5664 1.656888-2.152 1.81479-1.4244 4.09218-2.1274 6.39409-1.9739 1.06217-.0063 2.12118.1161 3.15388.3646.993.2455 1.9516.6133 2.8541 1.0948l-.2578 4.6381h-.4315l-1.5014-2.661c-.3968-.7666-.9442-1.4453-1.6093-1.9955-.7146-.4355-1.54689-.6379-2.38163-.5792-.97496.0008-1.92882.284-2.74619.8155-.40355.2342-.73628.5732-.96299.9811-.22671.4078-.33896.8694-.32489 1.3358-.01536.445.07601.8872.26647 1.2897s.47449.7536.82834 1.0239c.98547.7011 2.07835 1.2373 3.23588 1.5878l1.93071.5576c1.6985.4089 3.2375 1.3124 4.4224 2.5963.8953 1.1261 1.3661 2.5311 1.3299 3.9693.0268.9743-.1838 1.9406-.6138 2.8153-.4299.8748-1.0663 1.6318-1.8541 2.2057-2.0384 1.3734-4.47239 2.0372-6.92581 1.8887zm11.24361-.6386v-.4314l.6008-.1715c.4742-.1052.8938-.3798 1.18-.7723.234-.4185.3461-.8942.3236-1.3731v-13.4311c.0323-.4729-.0806-.9445-.3236-1.3515-.3007-.3489-.7222-.5712-1.18-.6223l-.6008-.1284v-.4315l7.8524-2.5358.4314.4314-.1283 6.0943v12.0159c-.022.4787.0905.9539.3247 1.372.274.3855.6775.6595 1.1368.7723l.4315.1284v.4314zm21.2845-7.4295c-1.7261.0515-3.4419-.2847-5.021-.9837v1.4561c-.0329.3868.0886.7709.338 1.0685.2494.2975.6064.4842.9931.5192l8.0681 1.5015c1.243.2292 2.4636.5666 3.6479 1.0085 1.0054.3594 1.9053.9641 2.6178 1.7592.6992.8809 1.0504 1.988.987 3.1108-.0039 1.4127-.4881 2.782-1.3731 3.8831-1.0728 1.3013-2.4726 2.2938-4.0557 2.8756-2.1337.7893-4.3993 1.161-6.6734 1.0948-1.8432.0623-3.6842-.1767-5.4503-.7076-1.1088-.3157-2.1009-.949-2.8541-1.8218-.5328-.6722-.8272-1.5023-.837-2.36.0294-1.1192.3959-2.2034 1.0517-3.1108.6718-1.0164 1.5579-1.8735 2.5962-2.511-.7566-.2514-1.4262-.7127-1.9307-1.33-.3871-.505-.5981-1.1229-.6008-1.7592-.0012-.5678.1549-1.1248.4509-1.6093.3248-.5358.6905-1.0457 1.0937-1.5252l1.4162-1.8024c-1.0027-.553-1.8284-1.3784-2.3819-2.3808s-.8122-2.141-.7461-3.2841c-.0301-.9489.1528-1.8925.5353-2.7613.3824-.8689.9547-1.6411 1.6748-2.2598 1.4734-1.2871 3.6407-1.9307 6.502-1.9307 1.2989-.0223 2.5937.1511 3.841.5145.9997.2895 1.9271.7868 2.7213 1.4594.8897-.1358 1.7608-.3732 2.5963-.7076.807-.3238 1.5541-.7807 2.2101-1.3515l.6008.4314v2.1886h-4.8538c1.0591 1.2237 1.6115 2.8053 1.5446 4.4223.0219.9368-.1646 1.8668-.5461 2.7226-.3815.8559-.9484 1.6163-1.6597 2.2262-1.4741 1.303-3.6418 1.9545-6.5031 1.9545zm-.0431-.8629c.51.0287 1.0176-.0893 1.4626-.3401s.8089-.6239 1.0484-1.0751c.6332-1.4887.9052-3.1061.7939-4.7201.1178-1.5936-.1547-3.1918-.7939-4.6564-.2374-.4294-.5904-.7837-1.019-1.0226s-.9156-.3529-1.4057-.3289c-.491-.0161-.9767.1061-1.4016.3527s-.772.6076-1.0016 1.0419c-.6515 1.4765-.9315 3.09-.8154 4.6996-.1091 1.5966.1492 3.1969.755 4.678.221.4348.5633.7961.9854 1.0404s.9059.361 1.393.336zm-6.3973 11.8918c-.0502.7142.065 1.4303.3367 2.0928.2716.6624.6923 1.2532 1.2294 1.7266 1.4605.9785 3.2097 1.4326 4.9617 1.2879 1.8604.1204 3.7175-.28 5.3629-1.1563.5658-.3325 1.0321-.8108 1.35-1.3849.318-.5741.4761-1.223.4578-1.879.0124-.3679-.0607-.7337-.2134-1.0687s-.3809-.63-.6667-.862c-.8914-.6077-1.9164-.9907-2.9878-1.1164l-7.7672-1.4551-.6871-.1715c-.4162.6029-.7482 1.2597-.987 1.9523-.2439.6512-.3755 1.3391-.3893 2.0343zm19.8726-3.5994v-.4314l.6008-.1715c.4589-.0871.8663-.3484 1.1368-.7292.2358-.4194.3612-.8919.3646-1.3731v-13.4353c.0361-.4834-.066-.9671-.2944-1.3947-.2889-.3522-.7053-.5759-1.1585-.6224l-.6472-.1715v-.4314l7.3347-2.4895.4314.4315.3431 2.9177c.9563-.9538 2.0463-1.7634 3.2358-2.4032 1.1624-.6442 2.4689-.9838 3.7979-.987 1.16-.0563 2.3105.2352 3.3038.837.8916.6406 1.5537 1.5508 1.8887 2.5963 1.0671-1.0248 2.2914-1.8721 3.6263-2.51 1.1816-.5862 2.4791-.9013 3.7979-.9222.8071-.0687 1.6199.025 2.3902.2756.7703.2507 1.4826.6532 2.0947 1.1838 1.0646 1.2818 1.5812 2.9316 1.4378 4.5917v12.5736c-.0442.4786.0886.9569.3732 1.3443s.7014.657 1.1714.7579l.4757.1316v.4314h-9.9126v-.4314l.4315-.1284c.4593-.1127.8628-.3868 1.1368-.7723.234-.4185.3461-.8941.3236-1.3731v-13.1355c.0953-.8742-.1351-1.7529-.6472-2.4679-.2809-.2439-.6081-.4285-.9622-.5429-.354-.1143-.7274-.156-1.0979-.1226-.7501.0016-1.4904.1704-2.167.494-.7988.394-1.5419.892-2.2101 1.481.1489.4884.2427.9921.2794 1.5014.0431.5437.0647 1.1157.0647 1.7161v11.1099c-.033.4765.1041.9493.387 1.3342.2828.3849.693.6571 1.1576.768l.385.1381v.4314h-9.9557v-.4314l.6008-.1715c.4551-.1121.857-.3791 1.1369-.755.2358-.41.3482-.8793.3236-1.3516v-13.088c.0794-.8627-.1404-1.7265-.6224-2.4464-.2796-.2687-.6145-.4732-.9814-.5991-.3668-.1259-.7567-.1703-1.1424-.13-.6876.0074-1.3638.1767-1.9739.494-.7453.3893-1.4377.8725-2.0602 1.4378v14.376c-.0474.4729.0788.9469.3551 1.3337.2762.3868.6837.6599 1.1464.7685l.385.1316v.4314zm43.3856.6472c-1.5198.0478-3.0057-.4551-4.184-1.4162-.5754-.5063-1.0271-1.1377-1.3203-1.8459-.2932-.7081-.4201-1.474-.371-2.2389.0373-.7349.2423-1.4514.5994-2.0948s.8568-1.1964 1.4608-1.6167c1.9243-1.3581 4.1469-2.2337 6.4804-2.5531.458-.0856.9728-.1787 1.5448-.2794.571-.1007 1.172-.2085 1.802-.3236v-3.3901c.106-1.4038-.137-2.812-.707-4.0988-.225-.3816-.55-.6934-.941-.901s-.832-.3026-1.2738-.2747c-.304-.0147-.6074.0373-.8891.1523-.2818.1149-.5349.2901-.7418.5132-.483.6702-.7522 1.4706-.7723 2.2964l-.0863.4724c.0316.9796-.2878 1.9382-.9007 2.7031-.2559.2784-.5681.4993-.9158.6481s-.7231.222-1.1012.2148c-.6817.023-1.3449-.2239-1.8455-.6871-.2455-.2383-.4374-.5262-.5631-.8443-.1257-.3182-.1823-.6595-.1661-1.0012-.0117-.5513.0909-1.099.3015-1.6086.2105-.5096.5243-.97.9217-1.3523.9144-.8572 2.0257-1.4762 3.2359-1.8023 1.4222-.4114 2.8966-.6138 4.3766-.6008 2.132-.1375 4.237.5286 5.902 1.8671 1.387 1.2447 2.081 3.2689 2.081 6.0726v9.4844c0 1.2872.601 1.9307 1.803 1.9307h.944l.386.343c-.487.6358-1.091 1.1734-1.778 1.5845-.845.4165-1.784.6086-2.725.5577-1.066.0589-2.119-.2524-2.982-.8812-.733-.5918-1.24-1.4173-1.438-2.3385-.8.8644-1.685 1.6477-2.639 2.3385-1.0355.6814-2.2599 1.0181-3.4981.9621zm2.6178-2.6178c.5623.0025 1.1163-.1378 1.6093-.4077.633-.3646 1.229-.7886 1.781-1.2663v-7.2096l-.863.1715c-.288.0575-.617.1147-.987.1715-1.1924.2747-2.2847.8765-3.1539 1.7377-.4019.4412-.7126.9574-.9144 1.519-.2017.5616-.2905 1.1575-.2613 1.7535-.0727.9514.2188 1.8949.8154 2.6394.246.2807.5497.5049.8905.6571.3407.1523.7102.2292 1.0834.2253z"/></g></svg>