<svg fill="none" height="33" viewBox="0 0 105 33" width="105" xmlns="http://www.w3.org/2000/svg"><path d="m1.2468 10.7441h10.3869l-3.43591 15.9842h3.72581l-1.2468 5.7478h-10.38691l3.43596-15.9841h-3.72585zm4.43195-7.00638c-.00174-.50022.0894-.9958.26807-1.45772.1688-.44325.41776-.84613.73245-1.18531.31702-.338822.6915-.609269 1.10322-.796718.43532-.1981817.90398-.29788987 1.37675-.29290937.45673-.00301189.90896.09676537 1.32766.29290937.4068.189689.7768.45997 1.0905.796718.3154.34061.5671.74296.7415 1.18531.1832.46063.276.95685.2727 1.45772.0033.50087-.0895.99709-.2727 1.45772-.1744.44235-.4261.8447-.7415 1.18531-.3137.33675-.6837.60703-1.0905.79671-.4187.19615-.87093.29593-1.32766.29291-.47277.00501-.94143-.0947-1.37675-.29291-.41172-.18744-.7862-.45789-1.10322-.79671-.31459-.33889-.56354-.74143-.73245-1.18434-.17879-.46222-.26993-.95814-.26807-1.45869zm8.70755 19.59178c-.0243-1.8701.3181-3.7247 1.0051-5.4432.633-1.5714 1.5526-2.9907 2.7044-4.174 1.138-1.1573 2.4748-2.0656 3.9358-2.6743 1.502-.6317 3.1017-.952 4.7146-.9441 1.2292-.0099 2.4476.2468 3.5822.7547 1.0814.4811 2.0659 1.1827 2.8989 2.066.8254.8825 1.482 1.93 1.9329 3.0834.4728 1.2047.7118 2.5004.7025 3.8078.0187 1.8125-.3034 3.6105-.9469 5.2861-.6019 1.561-1.4841 2.9793-2.5963 4.1739-1.1184 1.1874-2.4472 2.1217-3.9076 2.7475-1.5483.6666-3.2029 1.0016-4.8709.9862-1.2496.0138-2.4887-.2467-3.6413-.7655-1.0806-.4875-2.0646-1.1923-2.8989-2.0767-.822-.8784-1.4748-1.9221-1.9211-3.0717-.4647-1.1885-.7006-2.4659-.6934-3.7551zm6.3612-.7762c-.0062.5742.0795 1.1452.2536 1.6882.1558.4859.3977.9349.7124 1.322.3017.3676.6737.661 1.0905.8601.4336.2054.903.3092 1.3768.3047.6814-.001 1.3545-.1619 1.972-.4716.6417-.3147 1.2232-.755 1.7148-1.2986.509-.5656.916-1.2277 1.2004-1.9527.3026-.7659.4554-1.5904.4489-2.4224.0125-.6318-.0836-1.2607-.2835-1.8551-.1667-.4865-.4222-.9323-.7515-1.3113-.3055-.345-.6777-.6136-1.0905-.7869-.4233-.1763-.8737-.2654-1.3277-.2627-.7184-.0069-1.429.1599-2.0792.4882-.6362.3225-1.2072.7764-1.6803 1.3357-.4842.5753-.8678 1.2398-1.1323 1.9615-.283.764-.4258 1.5796-.4207 2.4019zm18.762-11.814h10.2688l-.3126 1.7828v-.0205c.5698-.4645 1.1782-.8718 1.8175-1.2166.619-.3296 1.2679-.5901 1.9365-.7771.6691-.1896 1.3582-.2847 2.0502-.2832 1.0181-.0241 2.0295.1832 2.9679.6083.8097.3744 1.5108.9756 2.0302 1.7409.5324.8256.8645 1.7811.9659 2.7797.1276 1.2466.0448 2.5078-.2444 3.7229l-1.6594 7.6518h3.6859l-1.2259 5.7478h-10.367l2.5182-11.6842c.1132-.4757.1494-.9688.1072-1.4577-.0332-.3961-.1395-.7811-.3126-1.1326-.1528-.3038-.3829-.5547-.6634-.7234-.2963-.1723-.6291-.2591-.966-.252-.8679.0642-1.7101.3443-2.46.8182-.5559.3129-1.085.6778-1.5812 1.0906l-2.8707 13.3411h-6.8528l3.4359-15.9841h-3.5141zm27.7431 0h10.3942l-3.4396 15.989h3.7258l-1.2459 5.7478h-10.3869l3.4405-15.9841h-3.7258zm4.4319-7.00646c-.0032-.49989.0864-.99545.2635-1.45772.1688-.44325.4178-.84613.7325-1.18531.317-.338825.6915-.609271 1.1032-.796721.4353-.1982085.904-.29791772 1.3768-.29290926.4567-.00301188.909.09676526 1.3276.29290926.4069.189689.7768.45997 1.0905.796721.3154.3406.5671.74296.7416 1.18531.1831.46063.2759.95685.2726 1.45772.0033.50087-.0895.99709-.2726 1.45772-.1745.44235-.4262.8447-.7416 1.18531-.3137.33674-.6836.60702-1.0905.79671-.4186.19615-.8709.29593-1.3276.29291-.4728.00501-.9415-.0947-1.3768-.29291-.4117-.18745-.7862-.45789-1.1032-.79671-.3147-.33918-.5637-.74206-.7325-1.18531-.1749-.46109-.263-.95492-.2589-1.45284zm22.0661 27.08346c-.5459.5939-1.1961 1.0654-1.9129 1.3874-.9447.4264-1.9626.6337-2.987.6083-1.0603-.0011-2.1118-.2072-3.1043-.6083-1.0073-.4-1.9276-1.0173-2.7044-1.8141-.817-.8498-1.4677-1.8666-1.9138-2.9906-.5087-1.3005-.7582-2.701-.7325-4.1115-.009-1.2738.1555-2.5421.488-3.7648.3099-1.1311.7631-2.211 1.3468-3.2094.5645-.9612 1.2511-1.8331 2.0401-2.5903.7809-.7502 1.6468-1.3915 2.5772-1.9088.9354-.5193 1.9251-.9173 2.948-1.1853 1.0319-.2723 2.0907-.4097 3.1533-.4091.5135-.0073 1.0266.0348 1.5331.126.4241.0839.9087.2099 1.454.3778.6894.2474 1.3358.6159 1.9129 1.0906l.2344-1.074h6.6335l-3.453 15.9842h3.736l-1.253 5.7517h-10.348zm.7225-6.1462.8588-1.1541.976-4.5313c-.1657-.3364-.369-.6498-.6053-.9334-.2658-.3166-.5795-.5826-.9278-.787-.3807-.2277-.7877-.4004-1.2104-.5135-.4306-.1183-.8733-.1783-1.3177-.1787-.6924-.0024-1.3775.1513-2.0111.4511-.6225.2894-1.1888.7021-1.6693 1.2165-.483.5227-.8704 1.138-1.1423 1.8141-.2883.7079-.4347 1.473-.4299 2.2457-.0112.6008.0882 1.1981.2927 1.7574.1784.4771.4516.9066.8006 1.2586.3381.3352.7368.5921 1.1713.7547.4582.1706.9401.2558 1.4249.2519.4444-.0021.8868-.0621 1.3177-.1787.4531-.1206.8896-.3041 1.2986-.5458.4277-.2506.8223-.5616 1.1732-.9246z" fill="#455667"/></svg>