<svg fill="none" height="20" viewBox="0 0 137 20" width="137" xmlns="http://www.w3.org/2000/svg"><path d="m0 19.6649v-19.33186h4.30533l6.31637 12.26186 6.2314-12.26186h4.3053v19.33186h-3.6255v-13.33899l-5.5233 10.57729h-2.86077l-5.52801-10.57729v13.33899zm27.843 0v-19.33186h3.6303v19.33186zm10.3102 0v-19.33186h4.3053l6.3164 12.26186 6.2314-12.26186h4.3053v19.33186h-3.6255v-13.33899l-5.5233 10.57729h-2.8608l-5.5233-10.57729v13.33899zm37.1335.3314c-1.8162.0414-3.6103-.3959-5.1929-1.2658-1.4727-.8372-2.6786-2.0561-3.4839-3.5211-.8682-1.6041-1.3036-3.3971-1.2651-5.21044-.0391-1.81137.3946-3.60271 1.2604-5.20579.8052-1.4651 2.0112-2.68393 3.4839-3.52116 1.5826-.86991 3.3766-1.3072137 5.1929-1.2657707h8.9364c1.7405-.01264628 3.4536.4240627 4.965 1.2657707 1.477.83199 2.6842 2.05215 3.4839 3.52116.8584 1.60544 1.2886 3.39567 1.2511 5.20579.039 1.80974-.3896 3.59994-1.2463 5.20574-.8007 1.4695-2.0092 2.6897-3.4875 3.5212-1.5169.8214-3.2217 1.2568-4.9568 1.2658.1794 0-8.7334.0046-8.9411.0046zm0-3.176h8.9694c.8033.0126 1.6-.1434 2.3361-.4572.7361-.3139 1.3944-.7784 1.9303-1.362 1.1901-1.3998 1.7922-3.187 1.6853-5.00214.106-1.81397-.4961-3.59982-1.6853-4.99866-.5547-.57752-1.2257-1.03726-1.971-1.35049-.7452-.31322-1.5487-.4732-2.3603-.46993.1877 0-8.7145 0-8.9033 0-.8459-.03546-1.6895.10924-2.4722.42403-.7826.31478-1.4855.79209-2.0598 1.39869-1.1976 1.39416-1.8057 3.18069-1.7006 4.99636-.106 1.81634.5017 3.60374 1.6995 4.99864.5742.6066 1.2771 1.0839 2.0598 1.3987.7826.3148 1.6262.4595 2.4721.424zm31.4343 3.176c-1.323.0255-2.636-.224-3.852-.7319-1.062-.446-1.974-1.1731-2.634-2.0988-.6656-.9873-1.011-2.1468-.9916-3.3279h3.8236c.019.8581.379 1.6755 1.006 2.2784.35.3182.763.5638 1.213.722s.929.2258 1.407.1986c.822.0431 1.634-.1963 2.294-.6766.276-.2155.497-.4908.644-.8041.148-.3132.219-.6557.207-1.0002.02-.3431-.037-.6863-.166-1.0058-.13-.3195-.329-.6077-.585-.8446-.583-.4875-1.263-.854-1.997-1.077l-2.662-.8838c-1.31-.3873-2.508-1.06833-3.499-1.9884-.411-.43398-.728-.94311-.9348-1.4978-.2066-.55469-.2982-1.1439-.2693-1.73338-.0477-1.04191.2449-2.0717.8351-2.9412.594-.83376 1.41-1.49286 2.361-1.905569 1.087-.468511 2.267-.699444 3.455-.67661418 1.204-.02378792 2.399.21196518 3.499.69042118.96.419282 1.783 1.088102 2.379 1.933182.592.87825.911 1.90421.92 2.95501h-3.875c-.02-.68203-.309-1.33031-.808-1.80891-.285-.27052-.625-.4802-.998-.6157s-.771-.19386-1.168-.17138c-.714-.0404-1.419.16128-1.997.57075-.269.20186-.483.46461-.624.76543-.14.30081-.203.63058-.184.96063-.014.28404.034.56777.142.83214.107.26437.272.50325.482.7006.496.42374 1.074.74755 1.699.95278.718.25776 1.539.53393 2.464.82851.93.30898 1.831.69711 2.691 1.15991.788.42059 1.459 1.02259 1.954 1.75369.523.8433.78 1.8184.737 2.8031.006.9921-.269 1.9667-.793 2.8169-.566.8946-1.381 1.6144-2.35 2.0759-1.191.5593-2.503.8309-3.825.7917zm11.698-.3314 7.251-19.33186h4.079l7.251 19.33186h-3.852l-1.586-4.474h-7.733l-1.614 4.474zm6.401-7.2357h5.75l-2.889-8.03648z" fill="#455667"/></svg>