<svg width="116" height="23" viewBox="0 0 116 23" fill="none" xmlns="http://www.w3.org/2000/svg">
<path d="M54.9468 18.7201H51.8278V9.70895C51.8278 7.52612 51.0039 6.40672 48.8559 6.40672C46.5902 6.40672 45.119 8.02985 45.119 10.6604V18.7201H42V4.27985H44.9719V6.79851C45.7958 5.1194 47.267 4 49.7975 4C53.2696 4 54.9468 5.6791 54.9468 9.17724V18.7201Z" fill="white"/>
<path d="M64.8051 19C59.9795 19 57.3019 16.0896 57.3019 11.5C57.3019 7.05037 59.8324 4 64.6286 4C69.4248 4 71.9553 7.10634 71.9553 11.2481C71.9553 11.528 71.9258 11.7799 71.8964 12.0597H60.4209C60.5091 15.4739 62.2158 16.9571 64.8051 16.9571C66.9531 16.9571 68.3066 15.8937 68.7774 14.2425H71.6316C70.9548 17.181 68.748 19 64.8051 19ZM64.6286 6.04291C62.2746 6.04291 60.7445 7.38619 60.4209 10.1007H68.8363C68.5126 7.38619 66.9825 6.04291 64.6286 6.04291Z" fill="white"/>
<path d="M86.6551 18.7201H83.183L79.299 13.5429L75.3855 18.7201H71.9428L77.5041 11.2201L72.2371 4.27985H75.6797L79.299 9.09328L82.8887 4.27985H86.3608L81.0938 11.2201L86.6551 18.7201Z" fill="white"/>
<path d="M92.6652 19C89.1932 19 87.516 17.3209 87.516 13.8228V4.27985H90.635V13.291C90.635 15.4739 91.4588 16.5933 93.6068 16.5933C95.8725 16.5933 97.3437 14.9701 97.3437 12.3396V4.27985H100.463V18.7201H97.4909V16.2295C96.6376 17.8806 95.1958 19 92.6652 19Z" fill="white"/>
<path d="M109.409 19C104.642 19 102.818 17.0131 102.818 14.2425H105.819C105.966 15.8937 106.731 17.0131 109.438 17.0131C112.087 17.0131 112.881 15.9216 112.881 14.6903C112.881 13.5429 111.998 12.9552 110.556 12.7593L107.761 12.3675C104.583 11.9478 103.23 10.8843 103.23 8.47761C103.23 5.98694 104.878 4 109.409 4C113.94 4 115.588 5.98694 115.588 8.53358H112.587C112.44 7.1903 111.969 5.98694 109.38 5.98694C107.173 5.98694 106.349 6.85448 106.349 8.25373C106.349 9.4291 107.055 9.84888 108.232 10.0168L111.027 10.4086C114.117 10.8284 116 11.8918 116 14.5224C116 17.0131 114.176 19 109.409 19Z" fill="white"/>
<path d="M16.7899 19.7658C17.292 20.5503 18.3451 20.7878 19.0478 20.1765C20.4968 18.916 21.6142 17.3061 22.2864 15.488C23.1545 13.1399 23.2327 10.5726 22.5091 8.17601C21.7855 5.77941 20.2996 3.68439 18.2771 2.20908C16.2545 0.733761 13.8058 -0.041261 11.3027 0.00169287C8.7996 0.0446468 6.37889 0.90323 4.40814 2.44707C2.43739 3.99091 1.02425 6.13568 0.383298 8.55569C-0.257654 10.9757 -0.0914048 13.5388 0.856801 15.8557C1.591 17.6497 2.76295 19.2203 4.25436 20.4303C4.97761 21.0172 6.02197 20.7437 6.4968 19.9425C6.97163 19.1412 6.69125 18.1178 6.00503 17.4881C5.12852 16.6838 4.43405 15.6919 3.97828 14.5783C3.30817 12.9408 3.19068 11.1295 3.64365 9.41921C4.09662 7.70895 5.09531 6.19321 6.48807 5.10215C7.88083 4.01109 9.59158 3.40432 11.3606 3.37396C13.1295 3.34361 14.8601 3.89133 16.2895 4.93395C17.7188 5.97658 18.7689 7.45716 19.2803 9.15088C19.7917 10.8446 19.7364 12.6589 19.1229 14.3184C18.7056 15.447 18.0456 16.4621 17.1972 17.296C16.533 17.9489 16.2879 18.9814 16.7899 19.7658Z" fill="url(#paint0_linear_1124_3859)"/>
<path d="M14.1936 6.27408C13.4052 5.77812 12.3513 6.01175 11.9758 6.86408C11.4443 8.07083 11.1225 9.36396 11.0287 10.6877C10.8951 12.5741 11.2288 14.4644 12.0003 16.1911C12.7718 17.9178 13.9571 19.4276 15.4515 20.5867C16.9458 21.7458 18.7029 22.5186 20.5672 22.8364C22.4315 23.1543 24.3454 23.0074 26.1394 22.4089C27.9333 21.8104 29.552 20.7788 30.8521 19.4053C32.1521 18.0317 33.0933 16.3588 33.5924 14.5347C33.9426 13.2547 34.0674 11.928 33.9658 10.6133C33.894 9.68469 32.9769 9.11502 32.0688 9.32175C31.1607 9.52847 30.6109 10.4361 30.6262 11.3673C30.6387 12.1334 30.5428 12.9002 30.3392 13.6447C29.9865 14.9338 29.3213 16.1161 28.4025 17.0868C27.4838 18.0574 26.3398 18.7866 25.072 19.2095C23.8042 19.6325 22.4516 19.7363 21.134 19.5116C19.8165 19.287 18.5747 18.7409 17.5187 17.9217C16.4626 17.1025 15.6249 16.0355 15.0797 14.8153C14.5345 13.595 14.2987 12.2591 14.3931 10.9259C14.4476 10.156 14.6113 9.40077 14.8769 8.68213C15.1998 7.80854 14.9819 6.77005 14.1936 6.27408Z" fill="url(#paint1_linear_1124_3859)"/>
<path d="M30.8771 6.38809C31.6721 5.90294 31.9321 4.85516 31.3359 4.13955C30.4835 3.1162 29.4569 2.24534 28.2994 1.56937C27.1418 0.893398 25.8789 0.427206 24.5688 0.187605C23.6526 0.0200574 22.8678 0.761315 22.8359 1.69213C22.804 2.62295 23.5413 3.38611 24.4455 3.60907C25.1985 3.79471 25.9238 4.08787 26.5985 4.48186C27.2732 4.87586 27.8849 5.36354 28.4166 5.9281C29.0551 6.60613 30.0821 6.87324 30.8771 6.38809Z" fill="url(#paint2_linear_1124_3859)"/>
<defs>
<linearGradient id="paint0_linear_1124_3859" x1="14.1538" y1="23" x2="11.5" y2="1.0393e-06" gradientUnits="userSpaceOnUse">
<stop stop-color="#2B3EED"/>
<stop offset="1" stop-color="#6573F4"/>
</linearGradient>
<linearGradient id="paint1_linear_1124_3859" x1="25.1538" y1="23" x2="22.5" y2="1.0393e-06" gradientUnits="userSpaceOnUse">
<stop stop-color="#2B3EED"/>
<stop offset="1" stop-color="#6573F4"/>
</linearGradient>
<linearGradient id="paint2_linear_1124_3859" x1="25.1538" y1="23" x2="22.5" y2="1.0393e-06" gradientUnits="userSpaceOnUse">
<stop stop-color="#2B3EED"/>
<stop offset="1" stop-color="#6573F4"/>
</linearGradient>
</defs>
</svg>
