<svg fill="none" height="31" viewBox="0 0 141 31" width="141" xmlns="http://www.w3.org/2000/svg"><g fill="#455667"><path d="m26.0165 6.31169h-.0631c-1.4636-.00746-2.911.3073-4.2393.92196-1.3284.61465-2.5052 1.51413-3.4469 2.63461-.9415-1.12091-2.1182-2.02084-3.4466-2.63591-1.3284-.61508-2.7759-.93021-4.2397-.92304h-.0476c-2.55926-.03119-5.02687.95181-6.86367 2.73425s-2.893478 4.21944-2.939161 6.77844c.045961 2.5674 1.109301 5.0114 2.956351 6.7951 1.84705 1.7838 4.3267 2.7612 6.89408 2.7177.756.0007 1.5098-.0826 2.2474-.2486.0594-.013.1189-.0345.176-.0487.2925-.0714.5826-.1498.8632-.2462.1701-.0582.333-.132.4995-.1997.1664-.0678.3293-.1189.4887-.1998.2699-.126.5327-.2699.7907-.4197.0476-.0274.0987-.0512.1451-.0785.9376-.5672 1.775-1.2856 2.478-2.1261.7037.84 1.5409 1.5583 2.4781 2.1261.0476.0273.0975.0511.1451.0785.258.1498.5208.2937.7907.4197.1594.0749.3258.1344.4899.1998s.3282.1415.4983.1997c.2818.0964.5707.1748.8644.2462.0583.0142.1189.0357.1748.0487.7376.1659 1.4914.2492 2.2474.2486 2.5674.0435 5.047-.9339 6.8941-2.7177 1.847-1.7837 2.9104-4.2277 2.9563-6.7951-.0457-2.5569-1.1009-4.992-2.9355-6.7738-1.8345-1.78175-4.2994-2.76549-6.8566-2.73651zm-.0631 15.45821c-.9409.0078-1.872-.1922-2.7267-.5858s-1.6119-.9712-2.2175-1.6913l-2.7444-3.2974-2.7432 3.2974c-.6059.7201-1.3634 1.2975-2.2183 1.6909s-1.7861.5932-2.7272.585c-1.6207.0416-3.19188-.5607-4.3695-1.6751-1.17761-1.1143-1.86571-2.6498-1.91362-4.2704.0476-1.6206.7356-3.1564 1.91329-4.2708 1.17768-1.1144 2.74904-1.71654 4.36983-1.67463.941-.00835 1.8722.19123 2.7271.58443s1.6124.9704 2.2184 1.6903l2.7432 3.2973 2.7444-3.2973c.6058-.72 1.363-1.2973 2.2177-1.6907s1.7857-.59325 2.7265-.58522c1.6209-.04191 3.1922.56032 4.3699 1.67462 1.1777 1.1144 1.8657 2.6502 1.9133 4.2708-.0476 1.6208-.7356 3.1566-1.9132 4.2712-1.1777 1.1146-2.749 1.7171-4.37 1.6755z"/><path d="m47.0352 30.1255v-22.53799h3.8847v2.69689c.5417-.90458 1.3108-1.65153 2.2307-2.16656.9857-.58582 2.1128-.89093 3.2593-.8823 1.005-.02836 2.0041.16221 2.9281.55849s1.7507.98879 2.4228 1.73645c1.4753 1.73542 2.2282 3.97082 2.1035 6.24512v.2568c.1205 2.2936-.6204 4.5493-2.0773 6.3248-.6665.7647-1.4948 1.3716-2.4247 1.7767-.93.4052-1.9385.5984-2.9524.5658-1.1655.0239-2.3168-.2586-3.3389-.8193-.9081-.4915-1.655-1.2347-2.1511-2.1403v8.3854zm8.4116-8.5079c.6208.0379 1.2419-.0701 1.8135-.3154.5715-.2453 1.0777-.6211 1.4779-1.0973.8368-1.2 1.2387-2.6499 1.1391-4.1095v-.2568c.1004-1.4793-.339-2.9448-1.2366-4.125-.3961-.4651-.8919-.835-1.4506-1.082-.5588-.2471-1.166-.3649-1.7766-.3449-.63-.0248-1.2577.0903-1.8379.3371-.5802.2467-1.0985.6189-1.5177 1.0898-.9183 1.171-1.3707 2.6404-1.27 4.125v.2568c-.1055 1.4794.3358 2.946 1.2402 4.1214.4313.4712.9614.8412 1.5524 1.0834.5911.2421 1.2284.3505 1.8663.3174zm11.9111 2.761v-16.79109h3.8824v3.14629c.4643-1.04859 1.2327-1.93362 2.2059-2.5404.9731-.60677 2.106-.90733 3.252-.86274v3.62794c-1.4465-.0853-2.882.2974-4.094 1.0916-.4921.4514-.8717 1.0117-1.1085 1.6361-.2368.6243-.3243 1.2955-.2554 1.9597v8.7326zm12.8422 0v-16.79109h3.8823v16.79109zm3.5316-20.19427c-.2171.20981-.4735.37457-.7545.48478-.2811.1102-.5811.16368-.8829.15733-.3018.00635-.6019-.04713-.8829-.15733-.281-.11021-.5375-.27497-.7545-.48478-.2171-.19971-.3895-.44317-.5057-.71433s-.1736-.56387-.1685-.85883c-.0074-.30001.0489-.59818.1651-.87487.1162-.27668.2897-.52562.5091-.73041.217-.209805.4735-.374565.7545-.484771.281-.110207.5811-.163679.8829-.157332.3018-.006347.6018.047125.8829.157332.281.110206.5374.274966.7545.484771.2193.20479.3928.45373.509.73041.1162.27669.1725.57486.1652.87487.0051.29496-.0523.58767-.1685.85883-.1163.27116-.2886.51462-.5057.71433zm10.8147 20.51537c-1.804.1053-3.5905-.404-5.0679-1.4447-.6122-.4954-1.1059-1.1214-1.4447-1.8323-.3389-.7109-.5144-1.4885-.5137-2.2761h3.66c.0449.767.3774 1.4889.9311 2.0215.6961.5057 1.5504.7449 2.4079.6742 2.0119 0 3.0179-.717 3.0179-2.151.0146-.3005-.0541-.5992-.1985-.8632-.1443-.2639-.3587-.4829-.6196-.6327-.8709-.4331-1.8111-.71-2.7777-.8181-1.6854-.1544-3.3065-.7225-4.7195-1.654-.4728-.434-.84-.9703-1.0737-1.568-.2338-.5977-.3277-1.2409-.2748-1.8804-.0278-.7254.1283-1.4461.4539-2.095.3256-.64889.81-1.20485 1.4083-1.61615 1.2969-.90522 2.8494-1.37188 4.4305-1.33178 4.0239 0 6.2181 1.69088 6.5821 5.07263h-3.5963c-.1092-.6607-.4456-1.2625-.9513-1.7016-.5997-.4045-1.3176-.5967-2.0392-.5458-.6954-.0408-1.3845.1513-1.9585.5458-.2255.166-.4075.3841-.5305.6357s-.1833.5292-.1758.8091c-.0127.2709.0495.5401.1798.778.1302.2378.3235.4352.5586.5704.8598.4146 1.7817.6857 2.729.8026 1.6897.1717 3.3219.7085 4.7837 1.5732.5295.4208.9455.9679 1.2095 1.5912.264.6232.367 1.3027.299 1.9761.043.7522-.093 1.5039-.396 2.1937s-.765 1.2982-1.3479 1.7755c-1.4488 1.0151-3.2004 1.5058-4.9657 1.3912zm15.8326-.0321c-.683.0475-1.368-.0416-2.016-.2621-.648-.2206-1.245-.568-1.757-1.0221-.455-.4944-.805-1.0761-1.028-1.7097-.223-.6337-.316-1.3061-.272-1.9765v-9.1822h-2.247v-2.92155h2.247v-3.68618h3.885v3.68618h3.686v2.92155h-3.686v8.829c0 1.4341.642 2.1511 1.927 2.1511.646.0182 1.29-.0909 1.894-.3211v3.0762c-.846.2942-1.737.4355-2.633.4174zm6.229-.289v-16.79109h3.884v16.79109zm3.531-20.19427c-.217.20981-.473.37457-.754.48478-.281.1102-.581.16368-.883.15733-.302.00635-.602-.04713-.883-.15733-.281-.11021-.538-.27497-.755-.48478-.217-.19971-.389-.44317-.505-.71433s-.174-.56387-.169-.85883c-.007-.30001.049-.59818.165-.87487.117-.27668.29-.52562.509-.73041.217-.209805.474-.374565.755-.484771.281-.110207.581-.163679.883-.157332.302-.006347.602.047125.883.157332.281.110206.537.274966.754.484771.22.20479.393.45373.509.73041.116.27669.173.57486.165.87487.006.29496-.052.58767-.168.85883s-.289.51462-.506.71433zm5.073 20.19427v-16.79109h3.885v2.66479c.457-.90754 1.172-1.66023 2.054-2.16419 1.024-.5884 2.191-.88261 3.371-.8502.776-.04058 1.551.08279 2.276.36205s1.382.70814 1.93 1.25868c1.135 1.39276 1.689 3.16986 1.546 4.96086v10.5591h-3.889v-10.2095c.081-.9977-.204-1.991-.803-2.7932-.334-.3229-.733-.5703-1.17-.7254-.438-.1551-.904-.2143-1.366-.1735-1.048-.0404-2.069.3344-2.841 1.0428-.384.3896-.681.8557-.872 1.368s-.271 1.0591-.236 1.6048v9.886z"/></g></svg>