<svg width="24" height="24" viewBox="0 0 24 24" fill="none" xmlns="http://www.w3.org/2000/svg">
<path d="M12.9996 12.9995V18.5795L14.8196 16.7495L16.2296 18.1595L11.9796 22.3995L7.73665 18.1495L9.14665 16.7295L10.9666 18.5495V12.9595H12.9666L12.9996 12.9995ZM11.9996 1.99945C15.5496 1.99945 18.5396 4.65945 18.9496 8.18945C21.8796 8.97945 23.5996 12.0095 22.7996 14.9395C22.1896 17.1495 20.2696 18.7595 17.9796 18.9695L17.9696 16.9895V16.9795C17.9696 13.6595 15.2796 10.9695 11.9696 10.9695C8.72965 10.9595 6.07965 13.5195 5.95965 16.7495L5.94965 16.9695V18.9395C2.91965 18.6595 0.689645 15.9895 0.959645 12.9595C1.15965 10.6695 2.76964 8.74945 4.98965 8.13945H4.97965C5.37965 4.59945 8.36965 1.93945 11.9296 1.93945L11.9996 1.99945Z" fill="url(#paint0_linear_625_31)"/>
<defs>
<linearGradient id="paint0_linear_625_31" x1="7.81458" y1="21.3742" x2="15.2181" y2="2.02635" gradientUnits="userSpaceOnUse">
<stop stop-color="#50657B"/>
<stop offset="1" stop-color="#6F87A0"/>
</linearGradient>
</defs>
</svg>
