<svg fill="none" height="18" viewBox="0 0 18 18" width="18" xmlns="http://www.w3.org/2000/svg"><path d="m3 4.81019-2.4375-2.4405 1.0575-1.065 2.43 2.43h11.43-.0075c.4125-.0075.75.33.75.7425 0 .0675-.015.1425-.0375.21l-1.8 6.00001h-.0075c-.0975.315-.39.5325-.72.5325h-9.195v1.5h8.25v1.5h-9-.0075c-.42-.0075-.75-.3375-.75-.7575v-.0008-8.69171zm1.5.435v4.5h8.634l1.35-4.5h-9.9915zm-.375 12.00001h-.0075c-.6225-.0075-1.125-.51-1.125-1.125 0-.6225.5025-1.125 1.125-1.125h-.0075c.615-.0075 1.125.5025 1.125 1.125 0 .615-.51 1.125-1.125 1.125zm9 0h-.0075c-.6225-.0075-1.125-.51-1.125-1.125 0-.6225.5025-1.125 1.125-1.125h-.0075c.615-.0075 1.125.5025 1.125 1.125 0 .615-.51 1.125-1.125 1.125z" fill="#fff"/></svg>