<svg fill="none" height="35" viewBox="0 0 123 35" width="123" xmlns="http://www.w3.org/2000/svg"><g fill="#455667"><path d="m42.6921 17.6121c-.0159-1.2877.2401-2.5644.7513-3.7464.486-1.1122 1.2052-2.107 2.1088-2.9173.949-.8386 2.0548-1.4806 3.2535-1.88902 1.3571-.46037 2.7828-.68577 4.2157-.66647 1.4299-.01664 2.8521.21007 4.2059.67041 1.2027.40688 2.3123 1.04898 3.2644 1.88898.9036.8103 1.6228 1.8052 2.1088 2.9173.5112 1.1821.7672 2.4587.7513 3.7465.015 1.2959-.2409 2.5807-.7513 3.772-.4855 1.1225-1.2044 2.1287-2.1088 2.9519-.9504.8497-2.0599 1.5025-3.2644 1.9205-1.3514.4716-2.7746.7041-4.2059.6872-1.433.0169-2.8581-.2167-4.2108-.6902-1.2007-.4204-2.3064-1.0741-3.2535-1.9235-.906-.822-1.6265-1.8276-2.1137-2.9498-.5104-1.1913-.7663-2.4761-.7513-3.7721zm3.6626 0c-.0133.8659.1581 1.7246.5029 2.519.323.7304.7998 1.3825 1.398 1.9117.6187.5405 1.3371.9548 2.1147 1.2196.8532.2914 1.7496.4357 2.6511.4269.9016.0085 1.7981-.1362 2.6512-.4279.7761-.2637 1.4928-.6778 2.1088-1.2186.5958-.5313 1.0723-1.1828 1.398-1.9117.3486-.7933.5222-1.6525.5088-2.519.0141-.8627-.1594-1.7182-.5088-2.5071-.3248-.7183-.8018-1.3575-1.398-1.8733-.6186-.5262-1.3353-.9247-2.1088-1.1722-.856-.278-1.7512-.4161-2.6512-.4092-.8996-.0085-1.7948.128-2.6511.4043-.7749.2484-1.4934.6467-2.1147 1.1722-.5985.5137-1.0759 1.1534-1.398 1.8732-.3461.7916-.5176 1.6484-.5029 2.5121zm20.6351-4.5519h3.4201v1.9639c.7498-.5593 1.5506-1.0469 2.3918-1.4562.8026-.3943 1.6424-.7078 2.5072-.9356l1.0056 3.1312c-1.1983.1014-2.3714.4013-3.4714.8874-.9612.4293-1.798 1.0951-2.4322 1.9353v8.1071h-3.4211zm13.6676-1.8604c-.3122.0045-.623-.0442-.9189-.144-.2556-.0866-.4927-.2203-.699-.3943-.1874-.159-.3389-.3559-.4446-.5778-.1037-.21835-.1569-.45724-.1558-.69897-.002-.24563.0512-.48856.1558-.71084.1047-.22074.2565-.41591.4446-.57183.2077-.17035.4445-.30163.699-.38746.2959-.09975.6067-.14843.9189-.14394.3158-.00499.6302.04368.9297.14394.2545.08583.4914.21711.699.38746.1881.15592.3399.35109.4447.57183.1045.22228.1577.46521.1557.71084.0011.24173-.0521.48062-.1557.69897-.1057.2219-.2573.4188-.4447.5778-.2063.174-.4434.3077-.699.3943-.2995.1003-.6139.149-.9297.144zm-1.7066 1.8604h3.4201v13.6331h-3.4201zm6.9782 6.8165c-.0073-.9489.1946-1.8877.5916-2.7496.3998-.8597.9787-1.6241 1.6977-2.242.7863-.6682 1.6918-1.1817 2.6689-1.5134 1.1324-.3838 2.3221-.5712 3.5177-.554 1.1956-.0169 2.3853.1708 3.5177.555.9771.3317 1.8826.8452 2.6684 1.5134.721.6182 1.301 1.3833 1.701 2.2439.397.8619.599 1.8008.592 2.7497.007.9489-.195 1.8878-.592 2.7497-.4.8594-.979 1.6234-1.699 2.241-.786.6675-1.6915 1.1803-2.6684 1.5114-1.1324.3842-2.3221.5719-3.5177.555-1.1956.0172-2.3853-.1702-3.5178-.5541-.9779-.332-1.8841-.8462-2.6708-1.5153-.7193-.6175-1.2984-1.3816-1.6987-2.241-.3976-.8617-.6003-1.8006-.5935-2.7497zm3.5937 0c-.0024.5355.1099 1.0653.3293 1.5538.2237.495.5508.9364.9593 1.2945.4511.391.9728.6921 1.537.8874.663.2292 1.361.3406 2.0625.3292.7014.0114 1.3995-.1 2.0625-.3292.5642-.1953 1.0859-.4964 1.537-.8874.4067-.3586.7321-.7999.9544-1.2945.2194-.4885.3317-1.0183.3293-1.5538.0025-.5386-.1097-1.0717-.3293-1.5636-.2227-.497-.5499-.9402-.9593-1.2994-.4512-.391-.9728-.6921-1.537-.8873-.6631-.2293-1.3611-.3407-2.0625-.3293-.7015-.0114-1.3995.1-2.0626.3293-.5641.1952-1.0858.4963-1.537.8873-.4087.3594-.7352.8026-.9573 1.2994-.2196.4919-.3318 1.025-.3293 1.5636zm16.8223-6.8165h3.42v1.1555c.816-.4771 1.693-.8419 2.606-1.0845.795-.2037 1.612-.3083 2.432-.3116.982-.0093 1.958.145 2.889.4565.854.2852 1.637.7479 2.299 1.3576.666.628 1.184 1.3952 1.519 2.2469.381.9912.566 2.0469.545 3.1085v6.7042h-3.409v-6.1461c.011-.6815-.096-1.3596-.317-2.0044-.192-.5574-.504-1.0662-.913-1.4907-.407-.4109-.901-.7264-1.444-.9238-.61-.2191-1.254-.3267-1.901-.3174-.382.0012-.763.0398-1.138.1153-.39.0773-.772.1875-1.144.3293-.377.1433-.74.3212-1.084.5314-.34.2068-.658.4487-.948.7217v9.1847h-3.416z"/><path d="m17.8741 34.8106c-3.3838 0-6.6915-1.0034-9.50497-2.8833s-5.0063-4.5518-6.30119-7.678c-1.294902-3.1261-1.633706-6.5661-.97357-9.8848.66013-3.3187 2.28955-6.36714 4.68221-8.7598 2.39266-2.39265 5.44112-4.02208 8.75982-4.682208 3.3187-.660133 6.7586-.321329 9.8848.973568 3.1261 1.2949 5.7981 3.48773 7.678 6.3012 1.8799 2.81344 2.8833 6.12124 2.8833 9.50494 0 4.5374-1.8025 8.889-5.0109 12.0975-3.2085 3.2084-7.5601 5.0109-12.0975 5.0109zm0-3.422c3.63 0 7.1113-1.442 9.678-4.0088 2.5668-2.5668 4.0088-6.0481 4.0088-9.6781s-1.442-7.1113-4.0088-9.67806c-2.5667-2.56678-6.048-4.00879-9.678-4.00879s-7.1113 1.44201-9.67809 4.00879c-2.56678 2.56676-4.00879 6.04806-4.00879 9.67806s1.44201 7.1113 4.00879 9.6781c2.56679 2.5668 6.04809 4.0088 9.67809 4.0088zm3.4221-17.1085h-5.1327c-.4538 0-.889-.1803-1.2099-.5011-.3208-.3209-.5011-.7561-.5011-1.2099s.1803-.889.5011-1.2099c.3209-.3209.7561-.5012 1.2099-.5012h6.8432c.4537 0 .8888.1803 1.2095.501.3208.3208.5011.7559.5011 1.2096v6.8432c0 .4538-.1803.889-.5012 1.2099-.3209.3208-.7561.5011-1.2099.5011s-.889-.1803-1.2099-.5011c-.3209-.3209-.5011-.7561-.5011-1.2099zm-5.1327 5.1326h-5.1326c-.4538 0-.889-.1802-1.20989-.5011s-.50116-.7561-.50116-1.2099.18027-.889.50116-1.2099.75609-.5011 1.20989-.5011h6.8432c.4536 0 .8887.1802 1.2095.501s.501.7558.501 1.2095v6.8432c0 .4538-.1802.889-.5011 1.2099s-.7561.5011-1.2099.5011-.889-.1802-1.2099-.5011-.5012-.7561-.5012-1.2099z"/></g></svg>