<svg width="100" height="100" viewBox="0 0 100 100" fill="none" xmlns="http://www.w3.org/2000/svg">
<rect width="100" height="100" fill="#121F2D"/>
<path d="M63 67H37V63.7619C37 61.6149 37.856 59.5559 39.3798 58.0377C40.9035 56.5196 42.9701 55.6667 45.125 55.6667H54.875C57.0299 55.6667 59.0965 56.5196 60.6202 58.0377C62.144 59.5559 63 61.6149 63 63.7619V67ZM50 52.4286C48.7196 52.4286 47.4518 52.1773 46.2688 51.6891C45.0859 51.2009 44.0111 50.4854 43.1057 49.5833C42.2003 48.6813 41.4822 47.6104 40.9922 46.4318C40.5022 45.2532 40.25 43.99 40.25 42.7143C40.25 41.4386 40.5022 40.1754 40.9922 38.9968C41.4822 37.8182 42.2003 36.7473 43.1057 35.8452C44.0111 34.9432 45.0859 34.2276 46.2688 33.7395C47.4518 33.2513 48.7196 33 50 33C52.5859 33 55.0658 34.0235 56.8943 35.8452C58.7228 37.667 59.75 40.1379 59.75 42.7143C59.75 45.2907 58.7228 47.7615 56.8943 49.5833C55.0658 51.4051 52.5859 52.4286 50 52.4286Z" fill="url(#paint0_linear_1124_3849)"/>
<defs>
<linearGradient id="paint0_linear_1124_3849" x1="45.106" y1="65.2962" x2="60.5084" y2="36.7459" gradientUnits="userSpaceOnUse">
<stop stop-color="#50657B"/>
<stop offset="1" stop-color="#6F87A0"/>
</linearGradient>
</defs>
</svg>
