<svg fill="none" height="25" viewBox="0 0 127 25" width="127" xmlns="http://www.w3.org/2000/svg"><g fill="#455667"><path d="m37.3702 24.9413c-.7803.0351-1.5586-.1055-2.2773-.4116-.7187-.306-1.3595-.7695-1.875-1.3564-1.1151-1.4587-1.6612-3.2734-1.5363-5.1052.0112-1.7481.2916-3.484.8315-5.1466.4946-1.6456 1.3789-3.14757 2.5777-4.37853.5666-.57866 1.2463-1.03431 1.9969-1.33851.7505-.30419 1.5557-.4504 2.3652-.4295 1.0148-.03301 2.0228.17639 2.9405.61083.8054.41862 1.4884 1.03911 1.9822 1.80078h.1978l1.0238-2.01605h3.8333l-.7649 4.22988-.5289 2.8749c-.6826 3.7881-1.0239 5.8147-1.0239 6.0799-.0065.1234.0154.2468.0641.3605.0487.1136.1229.2146.2167.2951.191.1556.4313.2378.6775.2316h.9583l-.5616 3.1689c-.8533.3738-1.7787.5543-2.7099.5289-.8108.0495-1.6128-.1906-2.263-.6775-.2754-.2489-.4886-.5588-.6226-.9049-.1339-.3461-.1849-.7188-.1489-1.0882h-.1978c-.5891.8353-1.3715 1.5157-2.2805 1.9833-.889.4571-1.8752.6933-2.8749.6884zm1.7484-3.9338c.4891.0113.9743-.0893 1.4186-.2943.4443-.2049.8359-.5086 1.1449-.888.6897-.8273 1.1865-1.7978 1.4543-2.8411.2835-1.0023.4334-2.0376.4459-3.0792 0-2.2248-.9252-3.3371-2.7755-3.3371-.5036-.0185-1.0046.0806-1.4634.2892s-.8627.5211-1.1799.9127c-.6767.8365-1.1515 1.8176-1.3877 2.8673-.2563 1.037-.3895 2.1007-.3967 3.1689 0 2.1388.9143 3.2082 2.7427 3.2082zm16.1611-20.347344h4.5271l-4.1971 23.889944h-4.5303zm9.1854 0h4.527l-4.196 23.889944h-4.5271zm9.0869 0h4.5271l-.7649 4.261564h-4.5216zm-1.0238 6.509274h4.5271l-3.0738 17.38067h-4.5271zm13.5179 17.77187c-1.9399.1091-3.8722-.3197-5.5838-1.2392-.6061-.3323-1.1106-.8229-1.4597-1.4195-.349-.5965-.5296-1.2767-.5225-1.9679-.0079-.4404.0708-.8782.2317-1.2883h4.3949c-.0668.1568-.1006.3257-.0995.4961-.0111.3055.0696.6074.2316.8666.1621.2592.3981.464.6776.5878.7053.3311 1.4787.4913 2.2575.4677.8561.0196 1.7084-.1205 2.5132-.4131.3029-.0799.5708-.2578.7621-.5058s.2952-.5523.2957-.8655c-.0012-.2712-.0856-.5356-.242-.7572-.1563-.2216-.377-.3899-.6322-.4819-.9047-.3862-1.8381-.7011-2.7918-.942-1.0313-.2462-2.0465-.5553-3.04-.9255-.7801-.2998-1.481-.7745-2.0488-1.3877-.5892-.6615-.8973-1.5266-.8589-2.4116-.0374-.8689.1496-1.7327.5431-2.5083.3935-.77549.9802-1.43655 1.7035-1.91939 1.71-1.09519 3.7155-1.63768 5.7444-1.55383 1.7805-.07304 3.5513.29599 5.1543 1.07413.5801.24957 1.0758.66139 1.4274 1.18594.3517.52455.5443 1.13955.5548 1.77095-.0015.4938-.0796.9845-.2316 1.4544h-4.3916l.0327-.3278c.0101-.2525-.0513-.5026-.1769-.7218-.1256-.2191-.3105-.3984-.5333-.5174-.6087-.306-1.2865-.4483-1.9669-.413-.7973-.0324-1.5921.1085-2.3297.413-.2476.0834-.4639.2403-.6201.4498s-.2448.4616-.254.7227c.0109.2527.0991.4959.2527.6968s.3652.3498.6061.4265c.8528.3509 1.7382.6167 2.6433.7933 1.0588.2287 2.1016.5258 3.1219.8895.8091.2973 1.5384.7779 2.1308 1.4041.6194.6926.9402 1.6017.8927 2.5296.0732.9458-.1089 1.8939-.5274 2.7453-.4184.8513-1.0578 1.5746-1.8514 2.0944-1.8199 1.0611-3.9049 1.5808-6.0099 1.4981zm15.8609 0c-1.153.1121-2.3034-.2319-3.2052-.9583-.3225-.3303-.5742-.7228-.7399-1.1536s-.2419-.8908-.2238-1.352c.0852-1.0207.2286-2.0356.4294-3.0399l1.3189-7.5671h-2.0762l.6557-3.70097h2.0811l1.685-4.88988h3.734l-.891 4.88988h3.007l-.656 3.70097h-3.008l-1.422 8.061c-.094.4471-.16.8996-.198 1.3549-.007.1348.017.2694.072.3929.054.1235.137.2323.242.3174.267.1823.587.2696.909.248h1.586l-.562 3.1689c-.438.1497-.885.2712-1.338.3639-.462.1032-.932.1581-1.405.1639zm14.373 0c-1.393.0244-2.772-.2934-4.014-.9256-1.152-.5889-2.123-1.4771-2.813-2.5711-.699-1.12-1.072-2.4134-1.074-3.7338-.01-.9633.068-1.9255.232-2.8749.279-2.2887 1.355-4.4059 3.039-5.98042 1.861-1.48033 4.203-2.22159 6.576-2.08161 1.41-.0253 2.805.29232 4.064.92552 1.158.58779 2.134 1.47869 2.825 2.57771.699 1.12 1.071 2.4133 1.074 3.7338.009.9633-.068 1.9255-.232 2.8749-.28 2.2916-1.363 4.4098-3.056 5.9793-1.88 1.48-4.237 2.2188-6.625 2.0762zm.328-3.701c.639.0389 1.278-.0555 1.879-.2773.6-.2218 1.147-.5661 1.607-1.011.935-1.1193 1.485-2.5096 1.569-3.9655.091-.6348.135-1.2754.132-1.9166.016-.4884-.068-.9749-.247-1.4295s-.449-.8677-.794-1.2138c-.769-.674-1.772-1.0183-2.792-.9583-.639-.0389-1.278.0555-1.879.2773-.6.2218-1.147.5661-1.607 1.011-.935 1.1193-1.485 2.5095-1.569 3.9655-.091.6347-.135 1.2753-.132 1.9166-.016.4883.068.9748.247 1.4295.179.4546.449.8677.794 1.2137.768.6758 1.77 1.022 2.791.9638z"/><path d="m17.9472 24.9505c-1.9493.0727-3.8875-.3242-5.6515-1.1571-1.4364-.7399-2.55801-1.9728-3.15898-3.4727l4.57518-1.9669c.6447 1.6741 2.1264 2.5231 4.4058 2.5231 1.5214.0508 3.019-.3869 4.2736-1.2489 1.1499-.8283 1.9279-2.0756 2.1657-3.4727h4.7588c-.2611 1.7833-.9899 3.4655-2.1122 4.8757-1.0711 1.3018-2.4524 2.3133-4.0168 2.9416-1.667.6613-3.4463.9934-5.2396.9779zm12.3881-14.6401h-4.9172c.0639-.32613.0965-.65764.0972-.98998.0325-.52943-.0599-1.05908-.2697-1.54628-.2097-.4872-.5309-.91835-.9377-1.25871-.9313-.67757-2.0666-1.01577-3.2169-.9583-1.6762-.06141-3.3142.50917-4.5894 1.59863l-4.3709-2.01277c.3421-.36997.7071-.71814 1.0928-1.04245 1.0541-.85997 2.2591-1.51621 3.5534-1.93519 1.4463-.46454 2.9579-.69293 4.4769-.67638 2.3667-.10996 4.7098.5132 6.7092 1.78439.8315.58329 1.501 1.36833 1.9458 2.28141.4448.91307.6502 1.92422.597 2.93847-.0107.60881-.0677 1.21592-.1705 1.81606z"/><path d="m.882738 17.557 14.611762-5.2133-12.73886-5.21331.7343-4.18508 16.15356 7.19549-.8447 4.6626-18.650362 7.2337z"/><path d="m.882739 17.5414 14.611761-5.2133 3.4759 1.426-.1716 1.0337-18.650362 7.2327z"/></g></svg>