<svg fill="none" height="32" viewBox="0 0 126 32" width="126" xmlns="http://www.w3.org/2000/svg"><g fill="#455667"><path d="m4.88688 26.0811 8.37942 5.5866c.3267.2172.7103.3331 1.1026.3331s.7759-.1159 1.1026-.3331l8.3794-5.5866c1.363-.9053 2.4805-2.134 3.2528-3.5765s1.1754-3.0538 1.1731-4.69v-15.60809c0-.52822-.2098-1.03481-.5833-1.40832s-.8801-.583346-1.4083-.583346h-23.83258c-.52823 0-1.03482.209836-1.40833.583346-.373507.37351-.583343.8801-.583343 1.40832v15.60809c-.002249 1.6362.400781 3.2475 1.173093 4.69.77231 1.4425 1.88986 2.6712 3.25284 3.5765zm-.45255-21.89288h19.86687v13.62638c.0028.9829-.2384 1.9512-.7018 2.8181-.4635.8669-1.1348 1.6052-1.9537 2.1489l-7.2796 4.8497-7.27732-4.8542c-.81833-.5432-1.48922-1.2808-1.95265-2.1469-.46343-.866-.70493-1.8334-.70291-2.8156z"/><path d="m12.3853 20.0803c.5266-.0007 1.0314-.21 1.4041-.582l7.9424-7.9468-2.8038-2.80931-6.5416 6.54151-2.56923-2.5681-2.80936 2.8093 3.97339 3.9734c.3727.372.8775.5813 1.4041.582z"/><path d="m44.2347 24.6776c-1.2738-.0123-2.5419-.1727-3.7787-.478-1.0847-.2316-2.1404-.5827-3.1479-1.0467l.4426-4.063c2.1395 1.1456 4.5078 1.7991 6.9321 1.9131.8696.0475 1.7334-.1672 2.4796-.6163.2928-.1984.5292-.4691.6863-.786.157-.3168.2294-.6689.21-1.022.0202-.5363-.1552-1.0616-.4935-1.4783-.3913-.4327-.8765-.77-1.4185-.9858-.6174-.2663-1.6033-.6385-2.9577-1.1165-1.0979-.3596-2.1584-.8247-3.1667-1.3886-.8063-.4567-1.4897-1.1022-1.9917-1.881-.5077-.8525-.7585-1.83336-.7225-2.82489-.027-.82511.1369-1.64532.4789-2.3967s.8529-1.41364 1.4928-1.93518c1.6296-1.19363 3.6275-1.77535 5.6431-1.64313 1.1612.00062 2.3188.13089 3.4511.38838 1.0735.23714 2.127.55675 3.1513.956l-.3862 3.91363c-1.0976-.48896-2.231-.89327-3.3902-1.20939-.9994-.26563-2.0288-.40137-3.0628-.40386-.9022-.05477-1.8019.14172-2.5991.56762-.2835.16778-.5165.40902-.6742.69824-.1578.28922-.2345.61568-.2221.94489-.0196.50198.1511.99285.478 1.37429.3629.3894.8061.6953 1.299.8962.5474.239 1.3588.5278 2.4343.8664 1.9172.5044 3.7115 1.394 5.2735 2.6146.5569.5114.9944 1.1391 1.2812 1.8387.2869.6995.4161 1.4537.3785 2.2088.0163 1.5926-.5955 3.1274-1.7028 4.2722-1.1375 1.2149-3.2701 1.8223-6.3977 1.8223zm13.9217-.1195c-.5703.0161-1.1381-.0828-1.6694-.2907-.5313-.208-1.0153-.5208-1.4232-.9198-.4211-.4301-.7486-.9427-.9619-1.5056-.2133-.563-.3077-1.1639-.2773-1.7651-.0201-.5933.0965-1.1832.3407-1.7243.2443-.541.6096-1.0186 1.0678-1.396.9656-.8017 2.1006-1.3737 3.3195-1.673 1.201-.3178 2.4332-.5033 3.6746-.5533.0306-.6906-.2105-1.3659-.6716-1.881-.5791-.432-1.2977-.6343-2.0172-.5676-.6515-.0007-1.2999.0898-1.9264.2689-.7457.226-1.4705.5158-2.1664.8664l-.332-3.0174c1.6864-.84665 3.5438-1.297 5.4306-1.31674.7326-.04934 1.4675.05294 2.1588.30044.6913.24749 1.3241.6349 1.8589 1.138 1.037 1.2865 1.5351 2.9248 1.3897 4.5709v4.0331c-.0154.545.0198 1.0902.1051 1.6287.0111.1243.0489.2446.1107.3529.0619.1083.1464.2019.2478.2745.27.1079.5608.154.8509.135h.478l-.3264 3.0417h-1.3411c-.7153.0238-1.4248-.1354-2.0613-.4625-.5426-.2927-.9896-.7351-1.288-1.2746-.539.5799-1.2129 1.0178-1.9618 1.2746-.8348.3096-1.7186.4663-2.6091.4625zm1.5491-2.8381c.4422-.0133.8779-.1094 1.2846-.2833.4652-.1812.8912-.4501 1.2548-.7922v-3.4058c-1.098.035-2.1766.2988-3.1668.7746-.3933.1458-.7341.4056-.979.7462-.2448.3406-.3824.7465-.3952 1.1658-.0214.2474.0102.4966.0926.7308.0825.2343.2138.4484.3854.6279.4392.3263.9831.4795 1.528.4305zm16.0175 10.0635c-1.7565.0847-3.5027-.3132-5.0489-1.1508-.569-.2986-1.0451-.7475-1.3768-1.2978-.3316-.5503-.506-1.181-.5042-1.8236.0334-.7543.2779-1.4842.7054-2.1066.4276-.6223 1.0212-1.1123 1.7133-1.4142-.3913-.2005-.7206-.504-.9522-.8778-.2316-.3737-.3569-.8036-.3623-1.2433-.0049-.4418.1371-.8727.4039-1.2249.2863-.3729.6593-.6703 1.0866-.8664-.7446-.5233-1.3371-1.2345-1.7173-2.0614-.3934-.8634-.5914-1.803-.5798-2.7518-.0123-1.0448.234-2.0764.717-3.003.4753-.9035 1.2015-1.6504 2.0913-2.15097.9962-.54746 2.12-.82048 3.2563-.79114 1.2056-.03107 2.3925.30209 3.4058.956.4317-.21184.8887-.36764 1.3599-.46361.603-.13307 1.2191-.19802 1.8367-.19364h.956l-.239 2.33026h-1.3499c-.3386 0-.6174.01-.8365.0299.6163.983.9282 2.1264.8963 3.2862.0124 1.0427-.2283 2.0728-.7016 3.0019-.4647.9053-1.1849 1.6544-2.0713 2.1543-.9962.5475-2.12.8205-3.2564.7912-.534-.0097-1.0651-.0799-1.5833-.2092-.0985.0348-.1835.0997-.2431.1855s-.0907.1881-.0889.2925c.0069.1366.0547.268.1372.3771s.1958.1909.3253.2348c.5023.1985 1.0302.3244 1.5679.374l2.5693.332c3.4256.4581 5.1385 1.902 5.1385 4.3318.0145.7171-.155 1.4259-.4925 2.0588-.3374.6329-.8315 1.1686-1.435 1.5561-1.5983.9779-3.4571 1.4446-5.3277 1.3378zm-.5677-13.6186c.3753.0213.7503-.0445 1.0959-.1923.3455-.1478.6521-.3736.8958-.6597.5011-.6764.748-1.5077.6971-2.348.0487-.8402-.2-1.6707-.7026-2.3457-.2437-.2861-.5503-.512-.8959-.6598-.3455-.1478-.7206-.2136-1.0958-.1922-.379-.0229-.7581.0421-1.1078.1899s-.6605.3744-.9082.6621c-.5026.675-.7514 1.5055-.7026 2.3457-.0485.8398.2002 1.6699.7026 2.3447.2479.2891.5595.5167.9103.6651.3507.1484.7311.2135 1.1112.1902zm.717 10.8147c2.5494 0 3.824-.627 3.824-1.881.0144-.2471-.0393-.4934-.1552-.7121-.1159-.2186-.2895-.4014-.502-.5283-.6819-.3447-1.421-.5621-2.1809-.6417l-3.2862-.4791c-.4712.1189-.8913.3866-1.1981.7633-.3068.3768-.4839.8425-.5048 1.3279-.0055.3423.091.6785.2772.9658s.4537.5127.7684.6475c.9313.4047 1.9435.5888 2.9576.5377zm8.9039-25.63275h3.7045v3.70451h-3.7045zm0 5.97501h3.7045v14.93754h-3.7045zm12.0385 15.23624c-.5518.0388-1.1055-.0441-1.6217-.243-.5163-.1988-.9825-.5087-1.3658-.9077-.6754-.7609-1.0383-1.749-1.0157-2.7662v-8.2754h-2.1212l.332-3.04726h1.7925v-3.28625l3.7045-.38838v3.67795h3.2863v3.04724h-3.2896v6.7496c-.0226.5566.0227 1.114.135 1.6597.0336.1407.1038.2701.2035.375s.2253.1817.3641.2225c.5146.1124 1.0416.1577 1.5679.135h1.0157l-.3286 3.0472zm10.2773 0c-.552.039-1.106-.0438-1.622-.2425-.516-.1986-.982-.5083-1.366-.9071-.675-.7609-1.038-1.749-1.016-2.7662v-8.2754h-2.121l.332-3.04725h1.793v-3.28626l3.704-.38837v3.67684h3.287v3.04724h-3.288v6.7496c-.023.5566.022 1.1139.134 1.6597.034.1407.104.2701.204.375.099.1049.225.1817.364.2225.515.1125 1.042.1578 1.569.135h1.015l-.33 3.0472zm8.63 0c-.569.0155-1.136-.0836-1.667-.2916-.53-.2079-1.014-.5204-1.421-.9189-.421-.4301-.749-.9427-.962-1.5056-.213-.563-.308-1.1639-.277-1.7651-.021-.5928.095-1.1825.338-1.7235s.608-1.0189 1.065-1.3968c.965-.8017 2.1-1.3737 3.319-1.673 1.201-.3178 2.434-.5033 3.675-.5533.031-.6906-.211-1.3659-.672-1.881-.579-.432-1.297-.6343-2.017-.5676-.652-.0008-1.3.0897-1.927.2689-.746.226-1.47.5159-2.166.8664l-.332-3.0174c1.689-.84686 3.549-1.29648 5.438-1.31453.732-.04949 1.468.05271 2.159.30021s1.324.63502 1.859 1.13822c1.037 1.2865 1.536 2.9249 1.39 4.5709v4.0331c-.016.545.019 1.0902.104 1.6288.011.1242.049.2445.111.3528s.146.2019.248.2745c.27.108.561.1542.852.135h.478l-.33 3.0395h-1.344c-.716.0238-1.425-.1354-2.062-.4625-.542-.2929-.989-.7353-1.287-1.2746-.537.5788-1.208 1.0166-1.954 1.2746-.836.3103-1.722.467-2.614.4625zm1.549-2.8381c.443-.0133.878-.1094 1.285-.2833.465-.1812.891-.4501 1.255-.7922v-3.4058c-1.098.035-2.177.2988-3.167.7746-.393.1458-.734.4056-.979.7462s-.382.7465-.395 1.1658c-.021.2485.012.4985.097.7332.084.2348.217.4488.391.6278.437.3239.979.4762 1.521.4282z"/></g></svg>