<svg fill="none" height="25" viewBox="0 0 114 25" width="114" xmlns="http://www.w3.org/2000/svg"><g fill="#455667"><path d="m70.7334 24.311c-2.0948.0631-4.1401-.6439-5.7495-1.9862-.7848-.7054-1.4008-1.5779-1.8027-2.5536s-.5793-2.0296-.519-3.0831v-15.01629c-.0129-.09773-.0032-.19708.0283-.29049.0316-.09341.084-.17862.1535-.24854.0695-.06991.1542-.12313.2474-.155206.0932-.032072.1926-.042766.2904-.030412h3.7907c.0978-.012354.1972-.00166.2904.030412.0932.032076.1777.085296.2472.155206.0695.06992.1221.15513.1536.24854.0316.09341.0412.19276.0282.29049v13.53029c-.0608 1.2256.3331 2.431 1.1061 3.3841.3896.4255.8687.759 1.4027.9774.534.2183 1.1096.3158 1.6857.2852.5994.026 1.1977-.0731 1.7569-.2905s1.0671-.5481 1.4916-.9721c.4159-.456.7377-.9903.9468-1.571.2092-.5806.3016-1.1967.272-1.8131v-13.53029c-.0129-.09773-.0033-.19708.0282-.29049s.0842-.17862.1537-.24854c.0695-.06991.1541-.12313.2473-.155206.0932-.032072.1926-.042766.2904-.030412h3.7445c.098-.012896.1977-.002467.2914.029363.0936.031835.1786.084175.2485.154155.0699.06999.1228.15591.1544.24959.0317.09368.0414.19351.0284.29154v21.60209c.0123.0977.0021.1973-.0299.2904-.032.0932-.0849.1781-.1547.2475-.0698.0695-.1546.1215-.2479.1531s-.1926.0411-.2902.0284h-3.7445c-.0977.0135-.1972.0051-.2906-.0263-.0935-.0313-.1785-.0844-.2482-.1541s-.1222-.154-.1536-.2475-.0407-.1939-.0272-.2915v-1.1725c0-.1181-.0386-.1964-.1127-.2265-.0146-.0062-.0303-.0092-.0461-.0094-.058 0-.1074.048-.1568.1457-.6721.7891-1.5208 1.4085-2.4773 1.808-.9564.3995-1.9937.5685-3.0274.4918zm25.2111-.043c-1.6987.0323-3.3887-.2517-4.9838-.8368-1.2884-.4608-2.432-1.2536-3.315-2.2988-.7577-.9217-1.1722-2.0787-1.1728-3.2719v-.2265c-.0123-.0977-.0019-.1963.0301-.2895.032-.0931.0849-.178.1547-.2475.0697-.0694.1546-.1215.2478-.1531.0933-.0316.1926-.0421.2903-.0293h3.6081c.4865 0 .7227.1073.7227.3167v.3125c.0219.4056.1474.7996.3643 1.1431.2169.3434.5182.6249.875.819.9373.5869 2.0294.8786 3.1345.8369 1.0297.0415 2.049-.2201 2.9317-.752.3344-.1868.6143-.4582.8117-.7865s.3054-.7024.3137-1.0854c.0098-.3202-.0717-.6357-.2351-.9113-.1633-.2755-.4018-.4999-.6874-.6449-.9575-.4727-1.9626-.8414-2.9982-1.1012l-1.7182-.5432c-1.3296-.375-2.6264-.8585-3.8777-1.444-1.0304-.4945-1.9393-1.2089-2.6621-2.0943-.7482-.9742-1.1313-2.1808-1.0825-3.40824-.0285-.97454.1803-1.94091.6085-2.81679s1.0631-1.63462 1.8497-2.21065c1.9061-1.32563 4.1971-1.983885 6.5161-1.871916 1.6536-.034236 3.297.265235 4.8324.879856 1.274.5061 2.387 1.34726 3.222 2.43507.76 1.02371 1.164 2.26943 1.149 3.54458-.001.0755-.02.1493-.055.21603s-.086.12382-.148.16674c-.151.10912-.334.16486-.52.15731h-3.471c-.48 0-.7225-.09018-.7225-.26952v-.27056c-.0084-.39786-.1183-.7871-.3194-1.13049-.2011-.3434-.4867-.6297-.8296-.83162-.9421-.57148-2.0343-.84653-3.1346-.78861-.996-.04124-1.985.18422-2.8651.65228-.3344.17295-.6143.43497-.809.75716-.1946.32219-.2963.69116-.2939 1.06757-.0041.34532.0915.68502.2753.97738.1838.29237.448.52517.761.67117 1.1132.53012 2.2776.94567 3.4751 1.23955l1.0362.2695c1.382.3967 2.738.8785 4.0605 1.443 1.064.4704 2.004 1.1815 2.748 2.0764.779.986 1.18 2.2176 1.129 3.4733.033.9822-.182 1.9575-.623 2.8357s-1.094 1.6319-1.901 2.1928c-1.991 1.3038-4.344 1.9448-6.7215 1.831zm-86.64035 0c-.10738 0-.23411 0-.41345 0v-3.9273c.13209 0 .25236.0083.36941.0083 1.02969.0416 2.04899-.22 2.93159-.7519.3342-.1872.6138-.4582.8112-.7865.1974-.3282.3057-.7025.3143-1.0854.0099-.3202-.0716-.6357-.235-.9113s-.4018-.4989-.6874-.6439c-.9603-.473-1.9683-.8428-3.00688-1.1022l-1.71173-.5432c-1.33083-.3745-2.62882-.8569-3.88096-1.443-1.02925-.4944-1.93673-1.2099-2.65778-2.0953-.748255-.9742-1.13134647-2.17976-1.0825163-3.4072-.0285361-.97453.1804223-1.94196.6086353-2.81784.428211-.87588 1.062911-1.63462 1.849501-2.21065 1.90585-1.32622 4.19705-1.984533 6.51619-1.871914 1.65164-.032928 3.29314.26651 4.82704.879854 1.2734.50722 2.3864 1.34923 3.2216 2.43612.7604 1.02372 1.164 2.26838 1.1489 3.54353-.0005.0755-.0192.14931-.0545.21603-.0353.06673-.0863.12383-.1484.16675-.1512.10821-.3339.16386-.5197.1573h-3.4707c-.48 0-.7228-.09018-.7228-.26951v-.27057c-.0084-.39786-.1182-.78709-.3193-1.13049-.2012-.34339-.4868-.6297-.8297-.83161-.942-.57148-2.0342-.84654-3.13453-.78862-.99606-.04207-1.98535.18343-2.86517.65229-.33494.1725-.61554.43388-.81077.7561-.19523.32223-.29736.69293-.29521 1.06967-.00393.3457.09206.68496.27647.97739.18441.29242.44928.52469.76292.67011 1.11165.5303 2.27466.94585 3.47078 1.23956l1.03951.2695c1.381.3966 2.7359.8783 4.057 1.443 1.0655.4695 2.0073 1.1808 2.7513 2.0764.7793.9859 1.18 2.2176 1.1297 3.4733.0321.9826-.1826 1.9584-.6244 2.8367s-1.0965 1.6318-1.9046 2.1918c-1.9884 1.3006-4.3373 1.9394-6.71055 1.8247zm46.99865-.2747h-3.7908c-.0976.0135-.197.0051-.2904-.0263-.0935-.0313-.1785-.0844-.2482-.1541s-.1224-.154-.1538-.2475c-.0313-.0935-.0405-.1939-.027-.2915v-21.60209c-.0129-.09773-.0033-.19708.0282-.29049s.0842-.17862.1537-.24854c.0695-.06991.154-.12313.2472-.155206.0932-.032072.1925-.042766.2903-.030412h3.7908c.0978-.012354.1972-.00166.2904.030412.0932.032076.1778.085296.2473.155206.0695.06992.122.15513.1535.24854.0316.09341.0413.19276.0283.29049v21.60209c.0145.098.006.1984-.025.2925-.0309.0942-.0834.1803-.1532.2507-.0699.0703-.1552.1235-.2491.1552-.0939.0316-.194.041-.2922.0273zm-17.3192 0h-3.7907c-.0977.0135-.1972.0051-.2907-.0263-.0934-.0313-.1784-.0844-.2481-.1541s-.1223-.154-.1536-.2475c-.0314-.0935-.0407-.1939-.0272-.2915v-21.60209c-.0129-.09773-.0032-.19708.0283-.29049.0316-.09341.084-.17862.1535-.24854.0695-.06991.1542-.12313.2474-.155206.0932-.032072.1926-.042766.2904-.030412h3.7907c.0978-.012354.1972-.00166.2904.030412.0932.032076.1777.085296.2472.155206.0695.06992.1221.15513.1537.24854.0315.09341.0411.19276.0281.29049v1.75866c0 .12027.029.1933.0902.22337.0112.00615.0238.00924.0366.00944.0505 0 .0998-.04812.1471-.14262.4197-.67935.9711-1.26743 1.6218-1.73035.6506-.46291 1.3874-.791051 2.1668-.964797h2.7995c.3554.080688.7016.196797 1.0331.348167.1674.07277.3018.20597.377.37229.0753.16631.086.35478.0301.52854l-.7229 3.74279c-.03.24269-.1137.39397-.2501.45303-.0795.03285-.1652.04822-.2513.0451-.1194-.00179-.2383-.01691-.3544-.0451-.4697-.13434-.9571-.19582-1.4454-.18247-.2871-.00357-.5741.01182-.8591.04614-1.1828.02858-2.311.50381-3.1582 1.32975-.4199.42188-.7487.92553-.9659 1.4797-.2173.55417-.3183 1.14705-.297 1.74185v12.5854c.015.0981.0069.1982-.0237.2926s-.0828.181-.1524.2517c-.0697.0707-.1549.1242-.2488.1562-.094.032-.1941.0418-.2924.0284zm-11.1402 0h-3.7908c-.0977.0135-.1972.0051-.2906-.0263-.0935-.0313-.1785-.0844-.2482-.1541s-.1222-.154-.1536-.2475-.0407-.1939-.0271-.2915v-21.60209c-.013-.09773-.0032-.19708.0283-.29049s.084-.17862.1535-.24854c.0695-.06991.1541-.12313.2473-.155206.0933-.032072.1926-.042766.2904-.030412h3.7908c.0978-.012354.1971-.00166.2903.030412.0932.032076.1779.085296.2474.155206.0695.06992.122.15513.1535.24854s.0411.19276.0282.29049v21.60209c.0144.098.0059.1984-.0251.2925-.0309.0942-.0834.1803-.1532.2507-.0699.0703-.1551.1235-.2491.1552-.0939.0316-.1939.041-.292.0273z"/><path d="m110.704 24.0454c-.401.0143-.801-.0521-1.176-.1955-.374-.1433-.716-.3606-1.005-.6389-.279-.2695-.5-.594-.646-.953-.147-.359-.218-.7447-.208-1.1325-.001-.3853.081-.7663.242-1.1167.16-.3504.394-.6618.687-.9129.564-.5468 1.319-.8529 2.105-.8537.803-.0023 1.576.3032 2.161.8537.297.2482.536.5587.7.9094s.249.7331.248 1.1202c.006.3879-.071.7725-.225 1.1287-.153.3563-.38.6761-.666.9385-.295.2817-.643.5022-1.023.6485-.381.1464-.787.2158-1.194.2042z"/></g></svg>