<svg fill="none" height="41" viewBox="0 0 129 41" width="129" xmlns="http://www.w3.org/2000/svg"><g fill="#455667"><path d="m26.5167.267346c-.4756-.118908-1.0702-.118908-1.5458-.118908h-9.5127c-.4757 0-1.0702 0-1.5459.118908-7.84794.713454-13.9123 7.372354-13.9123 15.339254v9.5127c0 8.2047 6.42108 14.9826 14.6258 15.4582h.8324 9.5127.8323c8.2048-.4756 14.6259-7.2535 14.6259-15.4582v-9.5127c0-7.9669-6.0644-14.6258-13.9124-15.339254zm9.8694 24.851954c0 6.3022-5.113 11.4153-11.4152 11.4153h-9.5127c-6.30221 0-11.41529-5.1131-11.41529-11.4153v-9.5127c0-6.30217 5.11308-11.41526 11.41529-11.41526h9.5127c6.3022 0 11.4152 5.11309 11.4152 11.41526z"/><path d="m29.1305 22.3897c-.3567-.2378-.8323-.4756-1.1891-.4756-.7134 0-1.308.3567-1.7836.8323-1.4269 1.7837-3.6862 2.8538-5.9454 2.9728-2.3782-.119-4.5186-1.1891-5.9455-2.9728-.7134-.9512-2.0214-1.0702-2.9727-.3567-.8324.7135-1.0702 1.9025-.4757 2.8538 2.2593 2.8538 5.7077 4.5186 9.2749 4.6375 3.6862-.1189 7.0157-1.7837 9.2749-4.6375.3568-.4756.4757-.9513.3568-1.5458.1189-.4756-.1189-1.0702-.5946-1.308z"/><path d="m55.6506 29.879c-2.0214.1189-4.0429-.3567-5.8265-1.4269-.7135-.3567-1.0702-1.0702-1.0702-1.7837 0-.3567.1189-.7134.3567-1.0701.2379-.2379.5946-.4757.9513-.3568.5945 0 1.0702.2379 1.5458.4757.5946.3567 1.308.5945 1.9026.7134.7134.2378 1.4269.2378 2.2592.2378.7135 0 1.5459-.1189 2.1404-.4756.4756-.2378.8324-.7134.8324-1.308 0-.3567-.119-.5945-.3568-.9513-.3567-.2378-.7134-.4756-1.0701-.5945-.8324-.2378-1.6648-.4756-2.4971-.5946-1.5459-.2378-2.9728-.8323-4.1619-1.6647-.8323-.7134-1.3079-1.9025-1.3079-2.9727 0-.9513.2378-1.9025.8323-2.616.5946-.8324 1.4269-1.4269 2.3782-1.7836 1.0702-.4757 2.2593-.7135 3.4484-.5946.9512 0 1.7836.1189 2.616.3567.8323.2379 1.5458.5946 2.2592.9513.5946.3567 1.0702 1.0702 1.0702 1.7837 0 .3567-.1189.8323-.3567 1.0701-.2378.2379-.5946.4757-.9513.4757-.2378 0-.4756 0-.7134-.1189-.3568-.1189-.5946-.2379-.8324-.4757-.4756-.2378-1.0702-.4756-1.6647-.7134-.5946-.2378-1.1891-.2378-1.6648-.2378-.7134 0-1.308.1189-1.9025.4756-.4756.2378-.7135.8324-.7135 1.308s.2379 1.0702.7135 1.308c.8324.4756 1.7836.7134 2.8538.8324 1.1891.2378 2.3782.5945 3.4484 1.0701.7134.3568 1.308.8324 1.7836 1.4269.3567.7135.5945 1.4269.5945 2.2593 0 1.4269-.7134 2.8538-1.9025 3.5673-1.5458.9513-3.2105 1.4269-4.9942 1.4269zm29.9651-16.8851c1.5458-.1189 2.9727.4756 4.0429 1.5458 1.0702 1.4269 1.5458 3.2106 1.4269 5.1131v8.0858c0 .5946-.1189 1.0702-.5945 1.4269-.4757.3568-.9513.5946-1.5459.4757-.5945 0-1.0701-.1189-1.4269-.4757-.3567-.3567-.5945-.9512-.5945-1.4269v-8.0858c.1189-.9513-.1189-1.7836-.5946-2.616-.4756-.5945-1.189-.8323-2.0214-.8323-.9513 0-1.9026.3567-2.616 1.0701-.7135.8324-1.0702 1.9026-.9513 2.9728v7.3723c0 .5946-.1189 1.0702-.5945 1.4269-.3567.3568-.9513.4757-1.4269.4757-.5946 0-1.0702-.1189-1.4269-.4757-.3568-.3567-.5946-.9512-.5946-1.4269v-8.0858c.1189-.9513-.1189-1.7836-.5945-2.616-.4757-.5945-1.1891-.8324-2.0215-.8324-.9513 0-1.9025.3568-2.616 1.0702-.7134.8324-.9513 1.9026-.9513 2.9728v7.3723c0 .5946-.2378 1.0702-.5945 1.4269s-.9513.4757-1.4269.4757c-.5945 0-1.0702-.119-1.4269-.4757s-.5946-.9513-.5946-1.4269v-12.4854c0-.5946.2379-1.0702.5946-1.4269.4756-.3568.9513-.4757 1.4269-.4757s1.0702.1189 1.4269.4757c.3567.3567.5945.8323.5945 1.4269v.8323c.4757-.8323 1.1891-1.5458 2.0215-2.0214.9513-.4757 1.9025-.7135 2.9727-.7135 2.1404-.2378 4.1618 1.0702 4.8753 3.0917.4756-.9513 1.1891-1.6648 2.1404-2.2593.9512-.5946 2.0214-.9513 3.0916-.9513zm12.3665 16.7662c-.5945 0-1.0702-.1189-1.4269-.4757-.3567-.3567-.5945-.9512-.5945-1.4269v-12.8421c0-.5946.1189-1.0702.5945-1.4269.3567-.3568.9513-.4757 1.4269-.4757.5946 0 1.0702.1189 1.4269.4757.3568.3567.5949.9512.5949 1.4269v12.7232c0 .5946-.2381 1.0702-.5949 1.4269-.3567.4757-.8323.5946-1.4269.5946zm0-19.62c-.5945 0-1.308-.23782-1.7836-.59455-.4756-.35672-.7135-.95127-.7135-1.54581 0-.59455.2379-1.18909.7135-1.54582.4756-.47564 1.1891-.59454 1.7836-.59454.5946 0 1.308.23781 1.7837.59454.4751.35673.7131.95127.7131 1.54582 0 .59454-.238 1.18909-.7131 1.54581-.4757.47565-1.0702.59455-1.7837.59455zm9.0368 19.62c-.594 0-1.07-.1189-1.427-.4757-.356-.3567-.594-.9512-.594-1.4269v-19.73885c0-.59455.119-1.07019.594-1.42691.476-.35673.952-.59455 1.427-.59455.595 0 1.07.11891 1.427.47564s.595.95127.595 1.42691v19.73886c0 .5946-.238 1.0702-.595 1.4269-.357.4757-.832.5946-1.427.5946zm19.858-4.6375c.357 0 .714.1189.951.4757.238.3567.357.7134.357 1.1891 0 .7134-.476 1.4269-1.189 1.6647-.832.4756-1.665.8323-2.497.9513-.832.2378-1.784.3567-2.735.3567-2.259.1189-4.519-.7135-6.183-2.2593-1.546-1.6647-2.378-3.924-2.26-6.1833 0-1.5458.357-2.9727.952-4.3996.594-1.1891 1.546-2.2593 2.735-2.9727 1.189-.7135 2.616-1.0702 4.043-1.0702 1.308 0 2.616.3567 3.805.9513 1.07.5945 1.902 1.5458 2.497 2.7349.594 1.308.951 2.7349.951 4.1618 0 .9513-.476 1.4269-1.308 1.4269h-9.751c0 1.1891.476 2.3782 1.308 3.3295.833.7134 2.022 1.189 3.211 1.0701.595 0 1.308-.1189 1.903-.2378.594-.2378 1.189-.4756 1.783-.7134.357-.2379.833-.3568 1.427-.4757zm-5.708-9.156c-.951 0-2.021.3568-2.734 1.0702-.714.8324-1.19 1.9026-1.19 3.0917h7.492c0-1.0702-.357-2.1404-.952-3.0917-.713-.8323-1.664-1.1891-2.616-1.0702z" opacity=".999"/></g></svg>