<svg width="24" height="24" viewBox="0 0 24 24" fill="none" xmlns="http://www.w3.org/2000/svg">
<path d="M11.9992 0.999687L20.2092 2.81969C20.6592 2.91969 20.9892 3.31969 20.9892 3.78969V13.7767V13.7667C20.9892 15.7667 19.9792 17.6367 18.3092 18.7567L11.9792 22.9667L5.64922 18.7467L5.63922 18.7367C3.96922 17.6167 2.95922 15.7467 2.95922 13.7367V3.73969H2.94922C2.94922 3.26969 3.26922 2.85969 3.72922 2.75969L11.9392 0.929688L11.9992 0.999687ZM11.9992 6.99969H11.9892C10.8792 6.99969 9.98922 7.88969 9.98922 8.99969C9.98922 9.70969 10.3692 10.3697 10.9792 10.7297V14.9897H12.9792V10.7197V10.7097C13.9292 10.1497 14.2592 8.92969 13.7092 7.96969C13.3492 7.34969 12.6892 6.95969 11.9692 6.96969L11.9992 6.99969Z" fill="url(#paint0_linear_625_34)"/>
<defs>
<linearGradient id="paint0_linear_625_34" x1="8.57354" y1="21.8624" x2="18.1747" y2="2.81046" gradientUnits="userSpaceOnUse">
<stop stop-color="#50657B"/>
<stop offset="1" stop-color="#6F87A0"/>
</linearGradient>
</defs>
</svg>
