<svg width="32" height="32" viewBox="0 0 32 32" fill="none" xmlns="http://www.w3.org/2000/svg">
<g clip-path="url(#clip0_1143_48)">
<path d="M16.0013 29.3332C8.6373 29.3332 2.66797 23.3638 2.66797 15.9998C2.66797 8.63584 8.6373 2.6665 16.0013 2.6665C23.3653 2.6665 29.3346 8.63584 29.3346 15.9998C29.3346 23.3638 23.3653 29.3332 16.0013 29.3332ZM7.10664 21.8998C7.98301 23.2111 9.13926 24.3116 10.4921 25.1223C11.8449 25.933 13.3607 26.4336 14.9303 26.588C16.4998 26.7425 18.0841 26.5469 19.569 26.0155C21.054 25.4841 22.4025 24.63 23.5177 23.5148C24.6329 22.3995 25.4868 21.0508 26.0181 19.5659C26.5494 18.0809 26.7448 16.4966 26.5902 14.9271C26.4356 13.3575 25.9349 11.8418 25.1241 10.489C24.3133 9.13624 23.2126 7.9801 21.9013 7.10384C22.4762 9.1548 22.4947 11.3219 21.9548 13.3823C21.4149 15.4428 20.3361 17.3223 18.8293 18.8278C17.3239 20.3344 15.4446 21.4131 13.3844 21.9529C11.3242 22.4928 9.15741 22.4745 7.10664 21.8998Z" fill="url(#paint0_linear_1143_48)"/>
</g>
<defs>
<linearGradient id="paint0_linear_1143_48" x1="10.9818" y1="27.9969" x2="21.1737" y2="3.29197" gradientUnits="userSpaceOnUse">
<stop stop-color="#50657B"/>
<stop offset="1" stop-color="#6F87A0"/>
</linearGradient>
<clipPath id="clip0_1143_48">
<rect width="32" height="32" fill="white"/>
</clipPath>
</defs>
</svg>
