<svg width="32" height="32" viewBox="0 0 32 32" fill="none" xmlns="http://www.w3.org/2000/svg">
<g clip-path="url(#clip0_1143_96)">
<path d="M7.105 21.2385C6.81147 19.9575 6.66387 18.6474 6.665 17.3332C6.665 10.5492 10.5357 4.75183 15.9983 2.42383C21.461 4.75183 25.3317 10.5492 25.3317 17.3332C25.3317 18.6798 25.1797 19.9878 24.8917 21.2385L27.585 23.6332C27.7009 23.7363 27.7773 23.8766 27.8009 24.0299C27.8245 24.1832 27.7939 24.34 27.7143 24.4732L24.437 29.9345C24.3848 30.0213 24.3136 30.095 24.2287 30.1502C24.1437 30.2053 24.0474 30.2404 23.9469 30.2527C23.8464 30.265 23.7444 30.2543 23.6486 30.2214C23.5529 30.1884 23.4659 30.1341 23.3943 30.0625L20.389 27.0572C20.139 26.8071 19.7999 26.6666 19.4463 26.6665H12.5503C12.1967 26.6666 11.8577 26.8071 11.6077 27.0572L8.60233 30.0625C8.53072 30.1341 8.44375 30.1884 8.34801 30.2214C8.25227 30.2543 8.15029 30.265 8.04979 30.2527C7.94929 30.2404 7.85293 30.2053 7.768 30.1502C7.68308 30.095 7.61183 30.0213 7.55966 29.9345L4.28233 24.4745C4.20243 24.3412 4.17163 24.1841 4.19524 24.0305C4.21886 23.8769 4.29541 23.7363 4.41166 23.6332L7.105 21.2385ZM15.9983 17.3332C16.7056 17.3332 17.3839 17.0522 17.8839 16.5521C18.384 16.052 18.665 15.3737 18.665 14.6665C18.665 13.9593 18.384 13.281 17.8839 12.7809C17.3839 12.2808 16.7056 11.9998 15.9983 11.9998C15.2911 11.9998 14.6128 12.2808 14.1127 12.7809C13.6126 13.281 13.3317 13.9593 13.3317 14.6665C13.3317 15.3737 13.6126 16.052 14.1127 16.5521C14.6128 17.0522 15.2911 17.3332 15.9983 17.3332Z" fill="url(#paint0_linear_1143_96)"/>
</g>
<defs>
<linearGradient id="paint0_linear_1143_96" x1="11.5518" y1="28.8629" x2="23.4166" y2="4.45574" gradientUnits="userSpaceOnUse">
<stop stop-color="#50657B"/>
<stop offset="1" stop-color="#6F87A0"/>
</linearGradient>
<clipPath id="clip0_1143_96">
<rect width="32" height="32" fill="white"/>
</clipPath>
</defs>
</svg>
