<svg width="32" height="32" viewBox="0 0 32 32" fill="none" xmlns="http://www.w3.org/2000/svg">
<g clip-path="url(#clip0_1143_92)">
<path d="M16.0013 29.3332C8.6373 29.3332 2.66797 23.3638 2.66797 15.9998C2.66797 8.63584 8.6373 2.6665 16.0013 2.6665C23.3653 2.6665 29.3346 8.63584 29.3346 15.9998C29.3346 23.3638 23.3653 29.3332 16.0013 29.3332ZM24.4746 21.2692V21.1292C24.4746 19.8998 24.4746 19.3385 23.6053 18.8412C23.3259 18.6828 23.0389 18.5381 22.7453 18.4078C22.256 18.1852 21.932 18.0398 21.4946 17.3998C21.4424 17.3238 21.3909 17.2474 21.34 17.1705C20.88 16.4705 20.548 15.9665 19.284 16.1665C16.7973 16.5612 16.6133 16.9985 16.504 17.7372L16.4866 17.8585C16.3253 18.9385 16.296 19.3012 16.7466 19.7745C18.4333 21.5438 19.444 22.8198 19.7506 23.5665C19.9 23.9305 20.284 25.0332 20.02 26.1238C21.6384 25.4792 23.079 24.4565 24.2213 23.1412C24.368 22.6425 24.4746 22.0212 24.4746 21.2692ZM16.0013 5.1105C12.912 5.1105 10.1213 6.3985 8.13997 8.46517C8.37597 8.62917 8.5813 8.85984 8.72263 9.17717C8.99463 9.7865 8.99463 10.4145 8.99463 10.9705C8.99463 11.4078 8.99463 11.8238 9.13463 12.1238C9.32663 12.5345 10.156 12.7105 10.888 12.8625C11.1506 12.9185 11.42 12.9745 11.6653 13.0425C12.34 13.2292 12.8626 13.8358 13.28 14.3225C13.4533 14.5238 13.7106 14.8212 13.84 14.8958C13.9066 14.8478 14.1213 14.6145 14.2266 14.2318C14.3093 13.9385 14.2853 13.6798 14.1666 13.5385C13.42 12.6585 13.4613 10.9652 13.692 10.3398C14.0546 9.3545 15.188 9.42784 16.0173 9.48117C16.3266 9.50117 16.6173 9.52117 16.836 9.49317C17.6653 9.38917 17.9213 8.1265 18.1013 7.87984C18.4906 7.3465 19.6826 6.5425 20.4213 6.0465C19.03 5.42783 17.524 5.10892 16.0013 5.1105Z" fill="url(#paint0_linear_1143_92)"/>
</g>
<defs>
<linearGradient id="paint0_linear_1143_92" x1="10.9818" y1="27.9969" x2="21.1737" y2="3.29197" gradientUnits="userSpaceOnUse">
<stop stop-color="#50657B"/>
<stop offset="1" stop-color="#6F87A0"/>
</linearGradient>
<clipPath id="clip0_1143_92">
<rect width="32" height="32" fill="white"/>
</clipPath>
</defs>
</svg>
