<svg width="32" height="32" viewBox="0 0 32 32" fill="none" xmlns="http://www.w3.org/2000/svg">
<g clip-path="url(#clip0_1143_44)">
<path d="M7.51461 16.9424L9.95194 19.3811L11.8399 17.4931L9.39994 15.0571L11.2853 13.1718L13.7239 15.6091L15.6093 13.7238L13.1733 11.2851L15.0586 9.39977L17.4933 11.8398L19.3799 9.9531L16.9413 7.51577L20.7133 3.7451C20.9633 3.49514 21.3024 3.35472 21.6559 3.35472C22.0095 3.35472 22.3486 3.49514 22.5986 3.7451L28.2546 9.4011C28.5046 9.65114 28.645 9.99021 28.645 10.3438C28.645 10.6973 28.5046 11.0364 28.2546 11.2864L11.2853 28.2558C11.0352 28.5057 10.6962 28.6461 10.3426 28.6461C9.98906 28.6461 9.64998 28.5057 9.39994 28.2558L3.74394 22.5998C3.49398 22.3497 3.35356 22.0107 3.35356 21.6571C3.35356 21.3035 3.49398 20.9645 3.74394 20.7144L7.51461 16.9424ZM18.8279 24.4838L24.4853 18.8278L27.9999 22.3424V27.9998H22.3439L18.8279 24.4838ZM7.51461 13.1704L3.74261 9.39977C3.61864 9.27594 3.5203 9.12888 3.4532 8.96702C3.3861 8.80516 3.35156 8.63165 3.35156 8.45643C3.35156 8.28121 3.3861 8.10771 3.4532 7.94585C3.5203 7.78398 3.61864 7.63693 3.74261 7.5131L7.51461 3.74243C7.76465 3.49247 8.10373 3.35205 8.45728 3.35205C8.81083 3.35205 9.14991 3.49247 9.39994 3.74243L13.1733 7.5131L7.51461 13.1704Z" fill="url(#paint0_linear_1143_44)"/>
</g>
<defs>
<linearGradient id="paint0_linear_1143_44" x1="11.2373" y1="27.3786" x2="20.9048" y2="3.94551" gradientUnits="userSpaceOnUse">
<stop stop-color="#50657B"/>
<stop offset="1" stop-color="#6F87A0"/>
</linearGradient>
<clipPath id="clip0_1143_44">
<rect width="32" height="32" fill="white"/>
</clipPath>
</defs>
</svg>
