<svg width="32" height="32" viewBox="0 0 32 32" fill="none" xmlns="http://www.w3.org/2000/svg">
<g clip-path="url(#clip0_1143_72)">
<path d="M19.1559 5.86377L14.5106 13.9104L16.8199 15.2438L21.4652 7.1971C27.0252 10.8931 29.8732 16.6371 27.5452 20.6664C25.0652 24.9624 17.9599 25.1398 11.6652 21.5064C5.37057 17.8691 1.9719 11.6278 4.4519 7.3331C6.77857 3.30244 13.1759 2.8971 19.1559 5.86377ZM21.1772 2.36377L23.4866 3.6971L21.4866 7.1611L19.1772 5.82777L21.1772 2.36377ZM8.97457 26.6664H22.6652V29.3331H6.6879C6.4499 29.3378 6.21501 29.2784 6.00786 29.1611C5.80072 29.0438 5.62895 28.873 5.51057 28.6664C5.39419 28.4635 5.33296 28.2337 5.33296 27.9998C5.33296 27.7659 5.39419 27.536 5.51057 27.3331L8.51057 22.1371L10.8199 23.4704L8.97457 26.6664Z" fill="url(#paint0_linear_1143_72)"/>
</g>
<defs>
<linearGradient id="paint0_linear_1143_72" x1="11.345" y1="27.9819" x2="22.2866" y2="3.66776" gradientUnits="userSpaceOnUse">
<stop stop-color="#50657B"/>
<stop offset="1" stop-color="#6F87A0"/>
</linearGradient>
<clipPath id="clip0_1143_72">
<rect width="32" height="32" fill="white"/>
</clipPath>
</defs>
</svg>
