<svg width="32" height="32" viewBox="0 0 32 32" fill="none" xmlns="http://www.w3.org/2000/svg">
<g clip-path="url(#clip0_1143_104)">
<path d="M10.587 24C10.191 22.3026 8.4043 20.9146 7.67097 20C6.41522 18.431 5.62823 16.5393 5.40066 14.5426C5.17308 12.5459 5.51417 10.5256 6.38464 8.71429C7.25511 6.90301 8.61955 5.37446 10.3208 4.30474C12.022 3.23502 13.9908 2.66765 16.0004 2.66797C18.01 2.66829 19.9786 3.2363 21.6795 4.30656C23.3804 5.37683 24.7444 6.90581 25.6142 8.71737C26.4841 10.5289 26.8246 12.5494 26.5964 14.546C26.3681 16.5426 25.5805 18.4341 24.3243 20.0026C23.591 20.916 21.807 22.304 21.411 24H10.587ZM21.3323 26.6666V28C21.3323 28.7072 21.0514 29.3855 20.5513 29.8856C20.0512 30.3857 19.3729 30.6666 18.6656 30.6666H13.3323C12.6251 30.6666 11.9468 30.3857 11.4467 29.8856C10.9466 29.3855 10.6656 28.7072 10.6656 28V26.6666H21.3323ZM17.3323 13.34V7.99997L11.3323 16.0066H14.6656V21.34L20.6656 13.34H17.3323Z" fill="url(#paint0_linear_1143_104)"/>
</g>
<defs>
<linearGradient id="paint0_linear_1143_104" x1="11.9831" y1="29.2636" x2="24.692" y2="5.79114" gradientUnits="userSpaceOnUse">
<stop stop-color="#50657B"/>
<stop offset="1" stop-color="#6F87A0"/>
</linearGradient>
<clipPath id="clip0_1143_104">
<rect width="32" height="32" fill="white"/>
</clipPath>
</defs>
</svg>
