<svg width="32" height="32" viewBox="0 0 32 32" fill="none" xmlns="http://www.w3.org/2000/svg">
<g clip-path="url(#clip0_1143_108)">
<path d="M15.9991 30.6667C13.9954 30.6665 12.0378 30.0643 10.3804 28.9383C8.72289 27.8122 7.44195 26.2142 6.70361 24.3514C5.96527 22.4886 5.80359 20.4469 6.23953 18.4911C6.67546 16.5353 7.68892 14.7556 9.14848 13.3827C10.9378 11.6987 15.3325 8.66667 14.6658 2C22.6658 7.33333 26.6658 12.6667 18.6658 20.6667C19.9991 20.6667 21.9991 20.6667 25.3325 17.3733C25.6925 18.404 25.9991 19.512 25.9991 20.6667C25.9991 23.3188 24.9456 25.8624 23.0702 27.7377C21.1949 29.6131 18.6513 30.6667 15.9991 30.6667Z" fill="url(#paint0_linear_1143_108)"/>
</g>
<defs>
<linearGradient id="paint0_linear_1143_108" x1="12.2351" y1="29.2302" x2="25.8513" y2="6.20419" gradientUnits="userSpaceOnUse">
<stop stop-color="#50657B"/>
<stop offset="1" stop-color="#6F87A0"/>
</linearGradient>
<clipPath id="clip0_1143_108">
<rect width="32" height="32" fill="white"/>
</clipPath>
</defs>
</svg>
